solid Muro001
  facet normal -900000.0 0.0 0.0
    outer loop
      vertex 0.0 0.0 0.0
      vertex 0.0 300.0 3000.0
      vertex 0.0 300.0 0.0
    endloop
  endfacet
  facet normal -900000.0 0.0 0.0
    outer loop
      vertex 0.0 0.0 0.0
      vertex 0.0 0.0 3000.0
      vertex 0.0 300.0 3000.0
    endloop
  endfacet
  facet normal 900000.0 0.0 0.0
    outer loop
      vertex 10000.0 300.0 3000.0
      vertex 10000.0 0.0 0.0
      vertex 10000.0 300.0 0.0
    endloop
  endfacet
  facet normal 900000.0 -0.0 0.0
    outer loop
      vertex 10000.0 0.0 3000.0
      vertex 10000.0 0.0 0.0
      vertex 10000.0 300.0 3000.0
    endloop
  endfacet
  facet normal 0.0 -30000000.0 0.0
    outer loop
      vertex 0.0 0.0 0.0
      vertex 10000.0 0.0 0.0
      vertex 0.0 0.0 3000.0
    endloop
  endfacet
  facet normal 0.0 -30000000.0 0.0
    outer loop
      vertex 10000.0 0.0 0.0
      vertex 10000.0 0.0 3000.0
      vertex 0.0 0.0 3000.0
    endloop
  endfacet
  facet normal 0.0 30000000.0 0.0
    outer loop
      vertex 10000.0 300.0 0.0
      vertex 0.0 300.0 0.0
      vertex 0.0 300.0 3000.0
    endloop
  endfacet
  facet normal 0.0 30000000.0 0.0
    outer loop
      vertex 10000.0 300.0 3000.0
      vertex 10000.0 300.0 0.0
      vertex 0.0 300.0 3000.0
    endloop
  endfacet
  facet normal 0.0 0.0 -3000000.0
    outer loop
      vertex 0.0 300.0 0.0
      vertex 10000.0 300.0 0.0
      vertex 0.0 0.0 0.0
    endloop
  endfacet
  facet normal 0.0 0.0 -3000000.0
    outer loop
      vertex 0.0 0.0 0.0
      vertex 10000.0 300.0 0.0
      vertex 10000.0 0.0 0.0
    endloop
  endfacet
  facet normal 0.0 0.0 3000000.0
    outer loop
      vertex 10000.0 300.0 3000.0
      vertex 0.0 300.0 3000.0
      vertex 0.0 0.0 3000.0
    endloop
  endfacet
  facet normal 0.0 0.0 3000000.0
    outer loop
      vertex 10000.0 300.0 3000.0
      vertex 0.0 0.0 3000.0
      vertex 10000.0 0.0 3000.0
    endloop
  endfacet
endsolid Muro001
solid Muro002
  facet normal -900000.0 0.0 0.0
    outer loop
      vertex 0.0 8000.0 0.0
      vertex 0.0 8300.0 3000.0
      vertex 0.0 8300.0 0.0
    endloop
  endfacet
  facet normal -900000.0 0.0 0.0
    outer loop
      vertex 0.0 8000.0 0.0
      vertex 0.0 8000.0 3000.0
      vertex 0.0 8300.0 3000.0
    endloop
  endfacet
  facet normal 900000.0 0.0 0.0
    outer loop
      vertex 10000.0 8300.0 3000.0
      vertex 10000.0 8000.0 0.0
      vertex 10000.0 8300.0 0.0
    endloop
  endfacet
  facet normal 900000.0 -0.0 0.0
    outer loop
      vertex 10000.0 8000.0 3000.0
      vertex 10000.0 8000.0 0.0
      vertex 10000.0 8300.0 3000.0
    endloop
  endfacet
  facet normal 0.0 -30000000.0 0.0
    outer loop
      vertex 0.0 8000.0 0.0
      vertex 10000.0 8000.0 0.0
      vertex 0.0 8000.0 3000.0
    endloop
  endfacet
  facet normal 0.0 -30000000.0 0.0
    outer loop
      vertex 10000.0 8000.0 0.0
      vertex 10000.0 8000.0 3000.0
      vertex 0.0 8000.0 3000.0
    endloop
  endfacet
  facet normal 0.0 30000000.0 0.0
    outer loop
      vertex 10000.0 8300.0 0.0
      vertex 0.0 8300.0 0.0
      vertex 0.0 8300.0 3000.0
    endloop
  endfacet
  facet normal 0.0 30000000.0 0.0
    outer loop
      vertex 10000.0 8300.0 3000.0
      vertex 10000.0 8300.0 0.0
      vertex 0.0 8300.0 3000.0
    endloop
  endfacet
  facet normal 0.0 0.0 -3000000.0
    outer loop
      vertex 0.0 8300.0 0.0
      vertex 10000.0 8300.0 0.0
      vertex 0.0 8000.0 0.0
    endloop
  endfacet
  facet normal 0.0 0.0 -3000000.0
    outer loop
      vertex 0.0 8000.0 0.0
      vertex 10000.0 8300.0 0.0
      vertex 10000.0 8000.0 0.0
    endloop
  endfacet
  facet normal 0.0 0.0 3000000.0
    outer loop
      vertex 10000.0 8300.0 3000.0
      vertex 0.0 8300.0 3000.0
      vertex 0.0 8000.0 3000.0
    endloop
  endfacet
  facet normal 0.0 0.0 3000000.0
    outer loop
      vertex 10000.0 8300.0 3000.0
      vertex 0.0 8000.0 3000.0
      vertex 10000.0 8000.0 3000.0
    endloop
  endfacet
endsolid Muro002
solid Muro003
  facet normal 0.0 -900000.0 0.0
    outer loop
      vertex 0.0 0.0 0.0
      vertex -300.0 0.0 3000.0
      vertex -300.0 0.0 0.0
    endloop
  endfacet
  facet normal 0.0 -900000.0 0.0
    outer loop
      vertex 0.0 0.0 0.0
      vertex 0.0 0.0 3000.0
      vertex -300.0 0.0 3000.0
    endloop
  endfacet
  facet normal 0.0 900000.0 0.0
    outer loop
      vertex -300.0 8000.0 3000.0
      vertex 0.0 8000.0 0.0
      vertex -300.0 8000.0 0.0
    endloop
  endfacet
  facet normal 0.0 900000.0 0.0
    outer loop
      vertex 0.0 8000.0 3000.0
      vertex 0.0 8000.0 0.0
      vertex -300.0 8000.0 3000.0
    endloop
  endfacet
  facet normal 24000000.0 0.0 -0.0
    outer loop
      vertex 0.0 8000.0 0.0
      vertex 0.0 8000.0 3000.0
      vertex 0.0 0.0 0.0
    endloop
  endfacet
  facet normal 24000000.0 0.0 0.0
    outer loop
      vertex 0.0 0.0 0.0
      vertex 0.0 8000.0 3000.0
      vertex 0.0 0.0 3000.0
    endloop
  endfacet
  facet normal -24000000.0 0.0 -0.0
    outer loop
      vertex -300.0 8000.0 3000.0
      vertex -300.0 8000.0 0.0
      vertex -300.0 0.0 0.0
    endloop
  endfacet
  facet normal -24000000.0 -0.0 0.0
    outer loop
      vertex -300.0 8000.0 3000.0
      vertex -300.0 0.0 0.0
      vertex -300.0 0.0 3000.0
    endloop
  endfacet
  facet normal 0.0 0.0 -2400000.0
    outer loop
      vertex -300.0 0.0 0.0
      vertex -300.0 8000.0 0.0
      vertex 0.0 0.0 0.0
    endloop
  endfacet
  facet normal 0.0 0.0 -2400000.0
    outer loop
      vertex 0.0 0.0 0.0
      vertex -300.0 8000.0 0.0
      vertex 0.0 8000.0 0.0
    endloop
  endfacet
  facet normal 0.0 0.0 2400000.0
    outer loop
      vertex -300.0 8000.0 3000.0
      vertex -300.0 0.0 3000.0
      vertex 0.0 0.0 3000.0
    endloop
  endfacet
  facet normal -0.0 0.0 2400000.0
    outer loop
      vertex -300.0 8000.0 3000.0
      vertex 0.0 0.0 3000.0
      vertex 0.0 8000.0 3000.0
    endloop
  endfacet
endsolid Muro003
solid Muro004
  facet normal 0.0 -900000.0 0.0
    outer loop
      vertex 10000.0 0.0 0.0
      vertex 9700.0 0.0 3000.0
      vertex 9700.0 0.0 0.0
    endloop
  endfacet
  facet normal 0.0 -900000.0 0.0
    outer loop
      vertex 10000.0 0.0 0.0
      vertex 10000.0 0.0 3000.0
      vertex 9700.0 0.0 3000.0
    endloop
  endfacet
  facet normal 0.0 900000.0 0.0
    outer loop
      vertex 9700.0 8000.0 3000.0
      vertex 10000.0 8000.0 0.0
      vertex 9700.0 8000.0 0.0
    endloop
  endfacet
  facet normal 0.0 900000.0 0.0
    outer loop
      vertex 10000.0 8000.0 3000.0
      vertex 10000.0 8000.0 0.0
      vertex 9700.0 8000.0 3000.0
    endloop
  endfacet
  facet normal 24000000.0 0.0 -0.0
    outer loop
      vertex 10000.0 8000.0 0.0
      vertex 10000.0 8000.0 3000.0
      vertex 10000.0 0.0 0.0
    endloop
  endfacet
  facet normal 24000000.0 0.0 0.0
    outer loop
      vertex 10000.0 0.0 0.0
      vertex 10000.0 8000.0 3000.0
      vertex 10000.0 0.0 3000.0
    endloop
  endfacet
  facet normal -24000000.0 0.0 -0.0
    outer loop
      vertex 9700.0 8000.0 3000.0
      vertex 9700.0 8000.0 0.0
      vertex 9700.0 0.0 0.0
    endloop
  endfacet
  facet normal -24000000.0 -0.0 0.0
    outer loop
      vertex 9700.0 8000.0 3000.0
      vertex 9700.0 0.0 0.0
      vertex 9700.0 0.0 3000.0
    endloop
  endfacet
  facet normal 0.0 0.0 -2400000.0
    outer loop
      vertex 9700.0 0.0 0.0
      vertex 9700.0 8000.0 0.0
      vertex 10000.0 0.0 0.0
    endloop
  endfacet
  facet normal 0.0 0.0 -2400000.0
    outer loop
      vertex 10000.0 0.0 0.0
      vertex 9700.0 8000.0 0.0
      vertex 10000.0 8000.0 0.0
    endloop
  endfacet
  facet normal 0.0 0.0 2400000.0
    outer loop
      vertex 9700.0 8000.0 3000.0
      vertex 9700.0 0.0 3000.0
      vertex 10000.0 0.0 3000.0
    endloop
  endfacet
  facet normal -0.0 0.0 2400000.0
    outer loop
      vertex 9700.0 8000.0 3000.0
      vertex 10000.0 0.0 3000.0
      vertex 10000.0 8000.0 3000.0
    endloop
  endfacet
endsolid Muro004
solid Muro005
  facet normal 0.0 -750000.0 0.0
    outer loop
      vertex 5000.0 0.0 0.0
      vertex 5000.0 0.0 3000.0
      vertex 4750.0 0.0 0.0
    endloop
  endfacet
  facet normal 0.0 -750000.0 0.0
    outer loop
      vertex 4750.0 0.0 0.0
      vertex 5000.0 0.0 3000.0
      vertex 4750.0 0.0 3000.0
    endloop
  endfacet
  facet normal 0.0 750000.0 0.0
    outer loop
      vertex 5000.0 8000.0 3000.0
      vertex 5000.0 8000.0 0.0
      vertex 4750.0 8000.0 0.0
    endloop
  endfacet
  facet normal 0.0 750000.0 0.0
    outer loop
      vertex 5000.0 8000.0 3000.0
      vertex 4750.0 8000.0 0.0
      vertex 4750.0 8000.0 3000.0
    endloop
  endfacet
  facet normal 24000000.0 0.0 -0.0
    outer loop
      vertex 5000.0 8000.0 0.0
      vertex 5000.0 8000.0 3000.0
      vertex 5000.0 0.0 0.0
    endloop
  endfacet
  facet normal 24000000.0 0.0 0.0
    outer loop
      vertex 5000.0 0.0 0.0
      vertex 5000.0 8000.0 3000.0
      vertex 5000.0 0.0 3000.0
    endloop
  endfacet
  facet normal -24000000.0 0.0 -0.0
    outer loop
      vertex 4750.0 8000.0 3000.0
      vertex 4750.0 8000.0 0.0
      vertex 4750.0 0.0 0.0
    endloop
  endfacet
  facet normal -24000000.0 -0.0 0.0
    outer loop
      vertex 4750.0 8000.0 3000.0
      vertex 4750.0 0.0 0.0
      vertex 4750.0 0.0 3000.0
    endloop
  endfacet
  facet normal 0.0 0.0 -2000000.0
    outer loop
      vertex 4750.0 0.0 0.0
      vertex 4750.0 8000.0 0.0
      vertex 5000.0 0.0 0.0
    endloop
  endfacet
  facet normal 0.0 0.0 -2000000.0
    outer loop
      vertex 5000.0 0.0 0.0
      vertex 4750.0 8000.0 0.0
      vertex 5000.0 8000.0 0.0
    endloop
  endfacet
  facet normal 0.0 0.0 2000000.0
    outer loop
      vertex 4750.0 8000.0 3000.0
      vertex 4750.0 0.0 3000.0
      vertex 5000.0 0.0 3000.0
    endloop
  endfacet
  facet normal -0.0 0.0 2000000.0
    outer loop
      vertex 4750.0 8000.0 3000.0
      vertex 5000.0 0.0 3000.0
      vertex 5000.0 8000.0 3000.0
    endloop
  endfacet
endsolid Muro005
solid Pilastro001
  facet normal -900000.0 0.0 0.0
    outer loop
      vertex -150.0 -150.0 0.0
      vertex -150.0 150.0 3000.0
      vertex -150.0 150.0 0.0
    endloop
  endfacet
  facet normal -900000.0 0.0 0.0
    outer loop
      vertex -150.0 -150.0 0.0
      vertex -150.0 -150.0 3000.0
      vertex -150.0 150.0 3000.0
    endloop
  endfacet
  facet normal 900000.0 0.0 0.0
    outer loop
      vertex 150.0 150.0 3000.0
      vertex 150.0 -150.0 0.0
      vertex 150.0 150.0 0.0
    endloop
  endfacet
  facet normal 900000.0 -0.0 0.0
    outer loop
      vertex 150.0 -150.0 3000.0
      vertex 150.0 -150.0 0.0
      vertex 150.0 150.0 3000.0
    endloop
  endfacet
  facet normal 0.0 -900000.0 0.0
    outer loop
      vertex 150.0 -150.0 0.0
      vertex -150.0 -150.0 3000.0
      vertex -150.0 -150.0 0.0
    endloop
  endfacet
  facet normal 0.0 -900000.0 0.0
    outer loop
      vertex 150.0 -150.0 0.0
      vertex 150.0 -150.0 3000.0
      vertex -150.0 -150.0 3000.0
    endloop
  endfacet
  facet normal 0.0 900000.0 0.0
    outer loop
      vertex -150.0 150.0 3000.0
      vertex 150.0 150.0 0.0
      vertex -150.0 150.0 0.0
    endloop
  endfacet
  facet normal 0.0 900000.0 0.0
    outer loop
      vertex 150.0 150.0 3000.0
      vertex 150.0 150.0 0.0
      vertex -150.0 150.0 3000.0
    endloop
  endfacet
  facet normal 0.0 0.0 -90000.0
    outer loop
      vertex -150.0 150.0 0.0
      vertex 150.0 150.0 0.0
      vertex -150.0 -150.0 0.0
    endloop
  endfacet
  facet normal 0.0 0.0 -90000.0
    outer loop
      vertex -150.0 -150.0 0.0
      vertex 150.0 150.0 0.0
      vertex 150.0 -150.0 0.0
    endloop
  endfacet
  facet normal 0.0 0.0 90000.0
    outer loop
      vertex 150.0 150.0 3000.0
      vertex -150.0 150.0 3000.0
      vertex -150.0 -150.0 3000.0
    endloop
  endfacet
  facet normal 0.0 0.0 90000.0
    outer loop
      vertex 150.0 150.0 3000.0
      vertex -150.0 -150.0 3000.0
      vertex 150.0 -150.0 3000.0
    endloop
  endfacet
endsolid Pilastro001
solid Pilastro002
  facet normal -900000.0 0.0 0.0
    outer loop
      vertex 9850.0 -150.0 0.0
      vertex 9850.0 150.0 3000.0
      vertex 9850.0 150.0 0.0
    endloop
  endfacet
  facet normal -900000.0 0.0 0.0
    outer loop
      vertex 9850.0 -150.0 0.0
      vertex 9850.0 -150.0 3000.0
      vertex 9850.0 150.0 3000.0
    endloop
  endfacet
  facet normal 900000.0 0.0 0.0
    outer loop
      vertex 10150.0 150.0 3000.0
      vertex 10150.0 -150.0 0.0
      vertex 10150.0 150.0 0.0
    endloop
  endfacet
  facet normal 900000.0 -0.0 0.0
    outer loop
      vertex 10150.0 -150.0 3000.0
      vertex 10150.0 -150.0 0.0
      vertex 10150.0 150.0 3000.0
    endloop
  endfacet
  facet normal 0.0 -900000.0 0.0
    outer loop
      vertex 10150.0 -150.0 0.0
      vertex 9850.0 -150.0 3000.0
      vertex 9850.0 -150.0 0.0
    endloop
  endfacet
  facet normal 0.0 -900000.0 0.0
    outer loop
      vertex 10150.0 -150.0 0.0
      vertex 10150.0 -150.0 3000.0
      vertex 9850.0 -150.0 3000.0
    endloop
  endfacet
  facet normal 0.0 900000.0 0.0
    outer loop
      vertex 9850.0 150.0 3000.0
      vertex 10150.0 150.0 0.0
      vertex 9850.0 150.0 0.0
    endloop
  endfacet
  facet normal 0.0 900000.0 0.0
    outer loop
      vertex 10150.0 150.0 3000.0
      vertex 10150.0 150.0 0.0
      vertex 9850.0 150.0 3000.0
    endloop
  endfacet
  facet normal 0.0 0.0 -90000.0
    outer loop
      vertex 9850.0 150.0 0.0
      vertex 10150.0 150.0 0.0
      vertex 9850.0 -150.0 0.0
    endloop
  endfacet
  facet normal 0.0 0.0 -90000.0
    outer loop
      vertex 9850.0 -150.0 0.0
      vertex 10150.0 150.0 0.0
      vertex 10150.0 -150.0 0.0
    endloop
  endfacet
  facet normal 0.0 0.0 90000.0
    outer loop
      vertex 10150.0 150.0 3000.0
      vertex 9850.0 150.0 3000.0
      vertex 9850.0 -150.0 3000.0
    endloop
  endfacet
  facet normal 0.0 0.0 90000.0
    outer loop
      vertex 10150.0 150.0 3000.0
      vertex 9850.0 -150.0 3000.0
      vertex 10150.0 -150.0 3000.0
    endloop
  endfacet
endsolid Pilastro002
solid Pilastro003
  facet normal -900000.0 0.0 0.0
    outer loop
      vertex 9850.0 7850.0 0.0
      vertex 9850.0 8150.0 3000.0
      vertex 9850.0 8150.0 0.0
    endloop
  endfacet
  facet normal -900000.0 0.0 0.0
    outer loop
      vertex 9850.0 7850.0 0.0
      vertex 9850.0 7850.0 3000.0
      vertex 9850.0 8150.0 3000.0
    endloop
  endfacet
  facet normal 900000.0 0.0 0.0
    outer loop
      vertex 10150.0 8150.0 3000.0
      vertex 10150.0 7850.0 0.0
      vertex 10150.0 8150.0 0.0
    endloop
  endfacet
  facet normal 900000.0 -0.0 0.0
    outer loop
      vertex 10150.0 7850.0 3000.0
      vertex 10150.0 7850.0 0.0
      vertex 10150.0 8150.0 3000.0
    endloop
  endfacet
  facet normal 0.0 -900000.0 0.0
    outer loop
      vertex 10150.0 7850.0 0.0
      vertex 9850.0 7850.0 3000.0
      vertex 9850.0 7850.0 0.0
    endloop
  endfacet
  facet normal 0.0 -900000.0 0.0
    outer loop
      vertex 10150.0 7850.0 0.0
      vertex 10150.0 7850.0 3000.0
      vertex 9850.0 7850.0 3000.0
    endloop
  endfacet
  facet normal 0.0 900000.0 0.0
    outer loop
      vertex 9850.0 8150.0 3000.0
      vertex 10150.0 8150.0 0.0
      vertex 9850.0 8150.0 0.0
    endloop
  endfacet
  facet normal 0.0 900000.0 0.0
    outer loop
      vertex 10150.0 8150.0 3000.0
      vertex 10150.0 8150.0 0.0
      vertex 9850.0 8150.0 3000.0
    endloop
  endfacet
  facet normal 0.0 0.0 -90000.0
    outer loop
      vertex 9850.0 8150.0 0.0
      vertex 10150.0 8150.0 0.0
      vertex 9850.0 7850.0 0.0
    endloop
  endfacet
  facet normal 0.0 0.0 -90000.0
    outer loop
      vertex 9850.0 7850.0 0.0
      vertex 10150.0 8150.0 0.0
      vertex 10150.0 7850.0 0.0
    endloop
  endfacet
  facet normal 0.0 0.0 90000.0
    outer loop
      vertex 10150.0 8150.0 3000.0
      vertex 9850.0 8150.0 3000.0
      vertex 9850.0 7850.0 3000.0
    endloop
  endfacet
  facet normal 0.0 0.0 90000.0
    outer loop
      vertex 10150.0 8150.0 3000.0
      vertex 9850.0 7850.0 3000.0
      vertex 10150.0 7850.0 3000.0
    endloop
  endfacet
endsolid Pilastro003
solid Pilastro004
  facet normal -900000.0 0.0 0.0
    outer loop
      vertex -150.0 7850.0 0.0
      vertex -150.0 8150.0 3000.0
      vertex -150.0 8150.0 0.0
    endloop
  endfacet
  facet normal -900000.0 0.0 0.0
    outer loop
      vertex -150.0 7850.0 0.0
      vertex -150.0 7850.0 3000.0
      vertex -150.0 8150.0 3000.0
    endloop
  endfacet
  facet normal 900000.0 0.0 0.0
    outer loop
      vertex 150.0 8150.0 3000.0
      vertex 150.0 7850.0 0.0
      vertex 150.0 8150.0 0.0
    endloop
  endfacet
  facet normal 900000.0 -0.0 0.0
    outer loop
      vertex 150.0 7850.0 3000.0
      vertex 150.0 7850.0 0.0
      vertex 150.0 8150.0 3000.0
    endloop
  endfacet
  facet normal 0.0 -900000.0 0.0
    outer loop
      vertex 150.0 7850.0 0.0
      vertex -150.0 7850.0 3000.0
      vertex -150.0 7850.0 0.0
    endloop
  endfacet
  facet normal 0.0 -900000.0 0.0
    outer loop
      vertex 150.0 7850.0 0.0
      vertex 150.0 7850.0 3000.0
      vertex -150.0 7850.0 3000.0
    endloop
  endfacet
  facet normal 0.0 900000.0 0.0
    outer loop
      vertex -150.0 8150.0 3000.0
      vertex 150.0 8150.0 0.0
      vertex -150.0 8150.0 0.0
    endloop
  endfacet
  facet normal 0.0 900000.0 0.0
    outer loop
      vertex 150.0 8150.0 3000.0
      vertex 150.0 8150.0 0.0
      vertex -150.0 8150.0 3000.0
    endloop
  endfacet
  facet normal 0.0 0.0 -90000.0
    outer loop
      vertex -150.0 8150.0 0.0
      vertex 150.0 8150.0 0.0
      vertex -150.0 7850.0 0.0
    endloop
  endfacet
  facet normal 0.0 0.0 -90000.0
    outer loop
      vertex -150.0 7850.0 0.0
      vertex 150.0 8150.0 0.0
      vertex 150.0 7850.0 0.0
    endloop
  endfacet
  facet normal 0.0 0.0 90000.0
    outer loop
      vertex 150.0 8150.0 3000.0
      vertex -150.0 8150.0 3000.0
      vertex -150.0 7850.0 3000.0
    endloop
  endfacet
  facet normal 0.0 0.0 90000.0
    outer loop
      vertex 150.0 8150.0 3000.0
      vertex -150.0 7850.0 3000.0
      vertex 150.0 7850.0 3000.0
    endloop
  endfacet
endsolid Pilastro004
solid Trave001
  facet normal -150000.0 0.0 0.0
    outer loop
      vertex 0.0 -150.0 2500.0
      vertex 0.0 150.0 3000.0
      vertex 0.0 150.0 2500.0
    endloop
  endfacet
  facet normal -150000.0 0.0 0.0
    outer loop
      vertex 0.0 -150.0 2500.0
      vertex 0.0 -150.0 3000.0
      vertex 0.0 150.0 3000.0
    endloop
  endfacet
  facet normal 150000.0 0.0 0.0
    outer loop
      vertex 10000.0 150.0 3000.0
      vertex 10000.0 -150.0 2500.0
      vertex 10000.0 150.0 2500.0
    endloop
  endfacet
  facet normal 150000.0 -0.0 0.0
    outer loop
      vertex 10000.0 -150.0 3000.0
      vertex 10000.0 -150.0 2500.0
      vertex 10000.0 150.0 3000.0
    endloop
  endfacet
  facet normal 0.0 -5000000.0 0.0
    outer loop
      vertex 10000.0 -150.0 2500.0
      vertex 10000.0 -150.0 3000.0
      vertex 0.0 -150.0 2500.0
    endloop
  endfacet
  facet normal 0.0 -5000000.0 0.0
    outer loop
      vertex 0.0 -150.0 2500.0
      vertex 10000.0 -150.0 3000.0
      vertex 0.0 -150.0 3000.0
    endloop
  endfacet
  facet normal 0.0 5000000.0 0.0
    outer loop
      vertex 10000.0 150.0 3000.0
      vertex 10000.0 150.0 2500.0
      vertex 0.0 150.0 2500.0
    endloop
  endfacet
  facet normal 0.0 5000000.0 0.0
    outer loop
      vertex 10000.0 150.0 3000.0
      vertex 0.0 150.0 2500.0
      vertex 0.0 150.0 3000.0
    endloop
  endfacet
  facet normal 0.0 0.0 -3000000.0
    outer loop
      vertex 0.0 150.0 2500.0
      vertex 10000.0 150.0 2500.0
      vertex 0.0 -150.0 2500.0
    endloop
  endfacet
  facet normal 0.0 0.0 -3000000.0
    outer loop
      vertex 0.0 -150.0 2500.0
      vertex 10000.0 150.0 2500.0
      vertex 10000.0 -150.0 2500.0
    endloop
  endfacet
  facet normal 0.0 0.0 3000000.0
    outer loop
      vertex 10000.0 150.0 3000.0
      vertex 0.0 150.0 3000.0
      vertex 0.0 -150.0 3000.0
    endloop
  endfacet
  facet normal 0.0 0.0 3000000.0
    outer loop
      vertex 10000.0 150.0 3000.0
      vertex 0.0 -150.0 3000.0
      vertex 10000.0 -150.0 3000.0
    endloop
  endfacet
endsolid Trave001
solid Trave002
  facet normal -150000.0 0.0 0.0
    outer loop
      vertex 0.0 7850.0 2500.0
      vertex 0.0 8150.0 3000.0
      vertex 0.0 8150.0 2500.0
    endloop
  endfacet
  facet normal -150000.0 0.0 0.0
    outer loop
      vertex 0.0 7850.0 2500.0
      vertex 0.0 7850.0 3000.0
      vertex 0.0 8150.0 3000.0
    endloop
  endfacet
  facet normal 150000.0 0.0 0.0
    outer loop
      vertex 10000.0 8150.0 3000.0
      vertex 10000.0 7850.0 2500.0
      vertex 10000.0 8150.0 2500.0
    endloop
  endfacet
  facet normal 150000.0 -0.0 0.0
    outer loop
      vertex 10000.0 7850.0 3000.0
      vertex 10000.0 7850.0 2500.0
      vertex 10000.0 8150.0 3000.0
    endloop
  endfacet
  facet normal 0.0 -5000000.0 0.0
    outer loop
      vertex 10000.0 7850.0 2500.0
      vertex 10000.0 7850.0 3000.0
      vertex 0.0 7850.0 2500.0
    endloop
  endfacet
  facet normal 0.0 -5000000.0 0.0
    outer loop
      vertex 0.0 7850.0 2500.0
      vertex 10000.0 7850.0 3000.0
      vertex 0.0 7850.0 3000.0
    endloop
  endfacet
  facet normal 0.0 5000000.0 0.0
    outer loop
      vertex 10000.0 8150.0 3000.0
      vertex 10000.0 8150.0 2500.0
      vertex 0.0 8150.0 2500.0
    endloop
  endfacet
  facet normal 0.0 5000000.0 0.0
    outer loop
      vertex 10000.0 8150.0 3000.0
      vertex 0.0 8150.0 2500.0
      vertex 0.0 8150.0 3000.0
    endloop
  endfacet
  facet normal 0.0 0.0 -3000000.0
    outer loop
      vertex 0.0 8150.0 2500.0
      vertex 10000.0 8150.0 2500.0
      vertex 0.0 7850.0 2500.0
    endloop
  endfacet
  facet normal 0.0 0.0 -3000000.0
    outer loop
      vertex 0.0 7850.0 2500.0
      vertex 10000.0 8150.0 2500.0
      vertex 10000.0 7850.0 2500.0
    endloop
  endfacet
  facet normal 0.0 0.0 3000000.0
    outer loop
      vertex 10000.0 8150.0 3000.0
      vertex 0.0 8150.0 3000.0
      vertex 0.0 7850.0 3000.0
    endloop
  endfacet
  facet normal 0.0 0.0 3000000.0
    outer loop
      vertex 10000.0 8150.0 3000.0
      vertex 0.0 7850.0 3000.0
      vertex 10000.0 7850.0 3000.0
    endloop
  endfacet
endsolid Trave002
solid Scala001
  facet normal -49411.76470588235 0.0 0.0
    outer loop
      vertex 1000.0 1280.0 0.0
      vertex 1000.0 1000.0 0.0
      vertex 1000.0 1280.0 176.47058823529412
    endloop
  endfacet
  facet normal -49411.76470588235 0.0 0.0
    outer loop
      vertex 1000.0 1000.0 0.0
      vertex 1000.0 1000.0 176.47058823529412
      vertex 1000.0 1280.0 176.47058823529412
    endloop
  endfacet
  facet normal 49411.76470588235 0.0 0.0
    outer loop
      vertex 2200.0 1000.0 0.0
      vertex 2200.0 1280.0 0.0
      vertex 2200.0 1280.0 176.47058823529412
    endloop
  endfacet
  facet normal 49411.76470588235 -0.0 0.0
    outer loop
      vertex 2200.0 1000.0 176.47058823529412
      vertex 2200.0 1000.0 0.0
      vertex 2200.0 1280.0 176.47058823529412
    endloop
  endfacet
  facet normal 0.0 -211764.70588235295 0.0
    outer loop
      vertex 1000.0 1000.0 0.0
      vertex 2200.0 1000.0 0.0
      vertex 1000.0 1000.0 176.47058823529412
    endloop
  endfacet
  facet normal 0.0 -211764.70588235295 0.0
    outer loop
      vertex 2200.0 1000.0 0.0
      vertex 2200.0 1000.0 176.47058823529412
      vertex 1000.0 1000.0 176.47058823529412
    endloop
  endfacet
  facet normal 0.0 211764.70588235295 0.0
    outer loop
      vertex 2200.0 1280.0 0.0
      vertex 1000.0 1280.0 0.0
      vertex 1000.0 1280.0 176.47058823529412
    endloop
  endfacet
  facet normal 0.0 211764.70588235295 0.0
    outer loop
      vertex 2200.0 1280.0 176.47058823529412
      vertex 2200.0 1280.0 0.0
      vertex 1000.0 1280.0 176.47058823529412
    endloop
  endfacet
  facet normal 0.0 0.0 -336000.0
    outer loop
      vertex 1000.0 1280.0 0.0
      vertex 2200.0 1280.0 0.0
      vertex 1000.0 1000.0 0.0
    endloop
  endfacet
  facet normal 0.0 0.0 -336000.0
    outer loop
      vertex 1000.0 1000.0 0.0
      vertex 2200.0 1280.0 0.0
      vertex 2200.0 1000.0 0.0
    endloop
  endfacet
  facet normal 0.0 0.0 336000.0
    outer loop
      vertex 2200.0 1280.0 176.47058823529412
      vertex 1000.0 1280.0 176.47058823529412
      vertex 1000.0 1000.0 176.47058823529412
    endloop
  endfacet
  facet normal 0.0 0.0 336000.0
    outer loop
      vertex 2200.0 1280.0 176.47058823529412
      vertex 1000.0 1000.0 176.47058823529412
      vertex 2200.0 1000.0 176.47058823529412
    endloop
  endfacet
  facet normal -98823.5294117647 0.0 0.0
    outer loop
      vertex 1000.0 1280.0 0.0
      vertex 1000.0 1560.0 352.94117647058823
      vertex 1000.0 1560.0 0.0
    endloop
  endfacet
  facet normal -98823.5294117647 0.0 0.0
    outer loop
      vertex 1000.0 1280.0 0.0
      vertex 1000.0 1280.0 352.94117647058823
      vertex 1000.0 1560.0 352.94117647058823
    endloop
  endfacet
  facet normal 98823.5294117647 0.0 0.0
    outer loop
      vertex 2200.0 1560.0 352.94117647058823
      vertex 2200.0 1280.0 0.0
      vertex 2200.0 1560.0 0.0
    endloop
  endfacet
  facet normal 98823.5294117647 -0.0 0.0
    outer loop
      vertex 2200.0 1280.0 352.94117647058823
      vertex 2200.0 1280.0 0.0
      vertex 2200.0 1560.0 352.94117647058823
    endloop
  endfacet
  facet normal 0.0 -423529.4117647059 0.0
    outer loop
      vertex 1000.0 1280.0 0.0
      vertex 2200.0 1280.0 0.0
      vertex 1000.0 1280.0 352.94117647058823
    endloop
  endfacet
  facet normal 0.0 -423529.4117647059 0.0
    outer loop
      vertex 2200.0 1280.0 0.0
      vertex 2200.0 1280.0 352.94117647058823
      vertex 1000.0 1280.0 352.94117647058823
    endloop
  endfacet
  facet normal 0.0 423529.4117647059 0.0
    outer loop
      vertex 2200.0 1560.0 0.0
      vertex 1000.0 1560.0 0.0
      vertex 1000.0 1560.0 352.94117647058823
    endloop
  endfacet
  facet normal 0.0 423529.4117647059 0.0
    outer loop
      vertex 2200.0 1560.0 352.94117647058823
      vertex 2200.0 1560.0 0.0
      vertex 1000.0 1560.0 352.94117647058823
    endloop
  endfacet
  facet normal 0.0 0.0 -336000.0
    outer loop
      vertex 1000.0 1560.0 0.0
      vertex 2200.0 1560.0 0.0
      vertex 1000.0 1280.0 0.0
    endloop
  endfacet
  facet normal 0.0 0.0 -336000.0
    outer loop
      vertex 1000.0 1280.0 0.0
      vertex 2200.0 1560.0 0.0
      vertex 2200.0 1280.0 0.0
    endloop
  endfacet
  facet normal 0.0 0.0 336000.0
    outer loop
      vertex 2200.0 1560.0 352.94117647058823
      vertex 1000.0 1560.0 352.94117647058823
      vertex 1000.0 1280.0 352.94117647058823
    endloop
  endfacet
  facet normal 0.0 0.0 336000.0
    outer loop
      vertex 2200.0 1560.0 352.94117647058823
      vertex 1000.0 1280.0 352.94117647058823
      vertex 2200.0 1280.0 352.94117647058823
    endloop
  endfacet
  facet normal -148235.29411764705 0.0 0.0
    outer loop
      vertex 1000.0 1560.0 0.0
      vertex 1000.0 1560.0 529.4117647058823
      vertex 1000.0 1840.0 0.0
    endloop
  endfacet
  facet normal -148235.29411764705 0.0 0.0
    outer loop
      vertex 1000.0 1840.0 0.0
      vertex 1000.0 1560.0 529.4117647058823
      vertex 1000.0 1840.0 529.4117647058823
    endloop
  endfacet
  facet normal 148235.29411764705 0.0 0.0
    outer loop
      vertex 2200.0 1560.0 529.4117647058823
      vertex 2200.0 1560.0 0.0
      vertex 2200.0 1840.0 0.0
    endloop
  endfacet
  facet normal 148235.29411764705 -0.0 0.0
    outer loop
      vertex 2200.0 1560.0 529.4117647058823
      vertex 2200.0 1840.0 0.0
      vertex 2200.0 1840.0 529.4117647058823
    endloop
  endfacet
  facet normal 0.0 -635294.1176470588 0.0
    outer loop
      vertex 2200.0 1560.0 0.0
      vertex 2200.0 1560.0 529.4117647058823
      vertex 1000.0 1560.0 0.0
    endloop
  endfacet
  facet normal 0.0 -635294.1176470588 0.0
    outer loop
      vertex 1000.0 1560.0 0.0
      vertex 2200.0 1560.0 529.4117647058823
      vertex 1000.0 1560.0 529.4117647058823
    endloop
  endfacet
  facet normal 0.0 635294.1176470588 0.0
    outer loop
      vertex 2200.0 1840.0 529.4117647058823
      vertex 2200.0 1840.0 0.0
      vertex 1000.0 1840.0 0.0
    endloop
  endfacet
  facet normal 0.0 635294.1176470588 0.0
    outer loop
      vertex 2200.0 1840.0 529.4117647058823
      vertex 1000.0 1840.0 0.0
      vertex 1000.0 1840.0 529.4117647058823
    endloop
  endfacet
  facet normal 0.0 0.0 -336000.0
    outer loop
      vertex 1000.0 1840.0 0.0
      vertex 2200.0 1840.0 0.0
      vertex 1000.0 1560.0 0.0
    endloop
  endfacet
  facet normal 0.0 0.0 -336000.0
    outer loop
      vertex 1000.0 1560.0 0.0
      vertex 2200.0 1840.0 0.0
      vertex 2200.0 1560.0 0.0
    endloop
  endfacet
  facet normal 0.0 0.0 336000.0
    outer loop
      vertex 2200.0 1840.0 529.4117647058823
      vertex 1000.0 1840.0 529.4117647058823
      vertex 1000.0 1560.0 529.4117647058823
    endloop
  endfacet
  facet normal 0.0 0.0 336000.0
    outer loop
      vertex 2200.0 1840.0 529.4117647058823
      vertex 1000.0 1560.0 529.4117647058823
      vertex 2200.0 1560.0 529.4117647058823
    endloop
  endfacet
  facet normal -197647.0588235294 0.0 0.0
    outer loop
      vertex 1000.0 1840.0 0.0
      vertex 1000.0 1840.0 705.8823529411765
      vertex 1000.0 2120.0 0.0
    endloop
  endfacet
  facet normal -197647.0588235294 0.0 0.0
    outer loop
      vertex 1000.0 2120.0 0.0
      vertex 1000.0 1840.0 705.8823529411765
      vertex 1000.0 2120.0 705.8823529411765
    endloop
  endfacet
  facet normal 197647.0588235294 0.0 0.0
    outer loop
      vertex 2200.0 1840.0 705.8823529411765
      vertex 2200.0 1840.0 0.0
      vertex 2200.0 2120.0 0.0
    endloop
  endfacet
  facet normal 197647.0588235294 -0.0 0.0
    outer loop
      vertex 2200.0 1840.0 705.8823529411765
      vertex 2200.0 2120.0 0.0
      vertex 2200.0 2120.0 705.8823529411765
    endloop
  endfacet
  facet normal 0.0 -847058.8235294118 0.0
    outer loop
      vertex 2200.0 1840.0 0.0
      vertex 2200.0 1840.0 705.8823529411765
      vertex 1000.0 1840.0 0.0
    endloop
  endfacet
  facet normal 0.0 -847058.8235294118 0.0
    outer loop
      vertex 1000.0 1840.0 0.0
      vertex 2200.0 1840.0 705.8823529411765
      vertex 1000.0 1840.0 705.8823529411765
    endloop
  endfacet
  facet normal 0.0 847058.8235294118 0.0
    outer loop
      vertex 2200.0 2120.0 705.8823529411765
      vertex 2200.0 2120.0 0.0
      vertex 1000.0 2120.0 0.0
    endloop
  endfacet
  facet normal 0.0 847058.8235294118 0.0
    outer loop
      vertex 2200.0 2120.0 705.8823529411765
      vertex 1000.0 2120.0 0.0
      vertex 1000.0 2120.0 705.8823529411765
    endloop
  endfacet
  facet normal 0.0 0.0 -336000.0
    outer loop
      vertex 1000.0 2120.0 0.0
      vertex 2200.0 2120.0 0.0
      vertex 1000.0 1840.0 0.0
    endloop
  endfacet
  facet normal 0.0 0.0 -336000.0
    outer loop
      vertex 1000.0 1840.0 0.0
      vertex 2200.0 2120.0 0.0
      vertex 2200.0 1840.0 0.0
    endloop
  endfacet
  facet normal 0.0 0.0 336000.0
    outer loop
      vertex 2200.0 2120.0 705.8823529411765
      vertex 1000.0 2120.0 705.8823529411765
      vertex 1000.0 1840.0 705.8823529411765
    endloop
  endfacet
  facet normal 0.0 0.0 336000.0
    outer loop
      vertex 2200.0 2120.0 705.8823529411765
      vertex 1000.0 1840.0 705.8823529411765
      vertex 2200.0 1840.0 705.8823529411765
    endloop
  endfacet
  facet normal -247058.82352941178 0.0 0.0
    outer loop
      vertex 1000.0 2120.0 0.0
      vertex 1000.0 2120.0 882.3529411764706
      vertex 1000.0 2400.0 0.0
    endloop
  endfacet
  facet normal -247058.82352941178 0.0 0.0
    outer loop
      vertex 1000.0 2400.0 0.0
      vertex 1000.0 2120.0 882.3529411764706
      vertex 1000.0 2400.0 882.3529411764706
    endloop
  endfacet
  facet normal 247058.82352941178 0.0 0.0
    outer loop
      vertex 2200.0 2120.0 882.3529411764706
      vertex 2200.0 2120.0 0.0
      vertex 2200.0 2400.0 0.0
    endloop
  endfacet
  facet normal 247058.82352941178 -0.0 0.0
    outer loop
      vertex 2200.0 2120.0 882.3529411764706
      vertex 2200.0 2400.0 0.0
      vertex 2200.0 2400.0 882.3529411764706
    endloop
  endfacet
  facet normal 0.0 -1058823.5294117648 0.0
    outer loop
      vertex 1000.0 2120.0 0.0
      vertex 2200.0 2120.0 0.0
      vertex 1000.0 2120.0 882.3529411764706
    endloop
  endfacet
  facet normal 0.0 -1058823.5294117648 0.0
    outer loop
      vertex 2200.0 2120.0 0.0
      vertex 2200.0 2120.0 882.3529411764706
      vertex 1000.0 2120.0 882.3529411764706
    endloop
  endfacet
  facet normal 0.0 1058823.5294117648 0.0
    outer loop
      vertex 2200.0 2400.0 0.0
      vertex 1000.0 2400.0 0.0
      vertex 1000.0 2400.0 882.3529411764706
    endloop
  endfacet
  facet normal 0.0 1058823.5294117648 0.0
    outer loop
      vertex 2200.0 2400.0 882.3529411764706
      vertex 2200.0 2400.0 0.0
      vertex 1000.0 2400.0 882.3529411764706
    endloop
  endfacet
  facet normal 0.0 0.0 -336000.0
    outer loop
      vertex 1000.0 2400.0 0.0
      vertex 2200.0 2400.0 0.0
      vertex 1000.0 2120.0 0.0
    endloop
  endfacet
  facet normal 0.0 0.0 -336000.0
    outer loop
      vertex 1000.0 2120.0 0.0
      vertex 2200.0 2400.0 0.0
      vertex 2200.0 2120.0 0.0
    endloop
  endfacet
  facet normal 0.0 0.0 336000.0
    outer loop
      vertex 2200.0 2400.0 882.3529411764706
      vertex 1000.0 2400.0 882.3529411764706
      vertex 1000.0 2120.0 882.3529411764706
    endloop
  endfacet
  facet normal 0.0 0.0 336000.0
    outer loop
      vertex 2200.0 2400.0 882.3529411764706
      vertex 1000.0 2120.0 882.3529411764706
      vertex 2200.0 2120.0 882.3529411764706
    endloop
  endfacet
  facet normal -296470.5882352941 0.0 0.0
    outer loop
      vertex 1000.0 2400.0 0.0
      vertex 1000.0 2400.0 1058.8235294117646
      vertex 1000.0 2680.0 0.0
    endloop
  endfacet
  facet normal -296470.5882352941 0.0 0.0
    outer loop
      vertex 1000.0 2680.0 0.0
      vertex 1000.0 2400.0 1058.8235294117646
      vertex 1000.0 2680.0 1058.8235294117646
    endloop
  endfacet
  facet normal 296470.5882352941 0.0 0.0
    outer loop
      vertex 2200.0 2400.0 1058.8235294117646
      vertex 2200.0 2400.0 0.0
      vertex 2200.0 2680.0 0.0
    endloop
  endfacet
  facet normal 296470.5882352941 -0.0 0.0
    outer loop
      vertex 2200.0 2400.0 1058.8235294117646
      vertex 2200.0 2680.0 0.0
      vertex 2200.0 2680.0 1058.8235294117646
    endloop
  endfacet
  facet normal 0.0 -1270588.2352941176 0.0
    outer loop
      vertex 2200.0 2400.0 0.0
      vertex 2200.0 2400.0 1058.8235294117646
      vertex 1000.0 2400.0 0.0
    endloop
  endfacet
  facet normal 0.0 -1270588.2352941176 0.0
    outer loop
      vertex 1000.0 2400.0 0.0
      vertex 2200.0 2400.0 1058.8235294117646
      vertex 1000.0 2400.0 1058.8235294117646
    endloop
  endfacet
  facet normal 0.0 1270588.2352941176 0.0
    outer loop
      vertex 2200.0 2680.0 1058.8235294117646
      vertex 2200.0 2680.0 0.0
      vertex 1000.0 2680.0 0.0
    endloop
  endfacet
  facet normal 0.0 1270588.2352941176 0.0
    outer loop
      vertex 2200.0 2680.0 1058.8235294117646
      vertex 1000.0 2680.0 0.0
      vertex 1000.0 2680.0 1058.8235294117646
    endloop
  endfacet
  facet normal 0.0 0.0 -336000.0
    outer loop
      vertex 1000.0 2680.0 0.0
      vertex 2200.0 2680.0 0.0
      vertex 1000.0 2400.0 0.0
    endloop
  endfacet
  facet normal 0.0 0.0 -336000.0
    outer loop
      vertex 1000.0 2400.0 0.0
      vertex 2200.0 2680.0 0.0
      vertex 2200.0 2400.0 0.0
    endloop
  endfacet
  facet normal 0.0 0.0 336000.0
    outer loop
      vertex 2200.0 2680.0 1058.8235294117646
      vertex 1000.0 2680.0 1058.8235294117646
      vertex 1000.0 2400.0 1058.8235294117646
    endloop
  endfacet
  facet normal 0.0 0.0 336000.0
    outer loop
      vertex 2200.0 2680.0 1058.8235294117646
      vertex 1000.0 2400.0 1058.8235294117646
      vertex 2200.0 2400.0 1058.8235294117646
    endloop
  endfacet
  facet normal -345882.35294117645 0.0 0.0
    outer loop
      vertex 1000.0 2680.0 0.0
      vertex 1000.0 2680.0 1235.2941176470588
      vertex 1000.0 2960.0 0.0
    endloop
  endfacet
  facet normal -345882.35294117645 0.0 0.0
    outer loop
      vertex 1000.0 2960.0 0.0
      vertex 1000.0 2680.0 1235.2941176470588
      vertex 1000.0 2960.0 1235.2941176470588
    endloop
  endfacet
  facet normal 345882.35294117645 0.0 0.0
    outer loop
      vertex 2200.0 2680.0 1235.2941176470588
      vertex 2200.0 2680.0 0.0
      vertex 2200.0 2960.0 0.0
    endloop
  endfacet
  facet normal 345882.35294117645 -0.0 0.0
    outer loop
      vertex 2200.0 2680.0 1235.2941176470588
      vertex 2200.0 2960.0 0.0
      vertex 2200.0 2960.0 1235.2941176470588
    endloop
  endfacet
  facet normal 0.0 -1482352.9411764706 0.0
    outer loop
      vertex 2200.0 2680.0 0.0
      vertex 2200.0 2680.0 1235.2941176470588
      vertex 1000.0 2680.0 0.0
    endloop
  endfacet
  facet normal 0.0 -1482352.9411764706 0.0
    outer loop
      vertex 1000.0 2680.0 0.0
      vertex 2200.0 2680.0 1235.2941176470588
      vertex 1000.0 2680.0 1235.2941176470588
    endloop
  endfacet
  facet normal 0.0 1482352.9411764706 0.0
    outer loop
      vertex 2200.0 2960.0 1235.2941176470588
      vertex 2200.0 2960.0 0.0
      vertex 1000.0 2960.0 0.0
    endloop
  endfacet
  facet normal 0.0 1482352.9411764706 0.0
    outer loop
      vertex 2200.0 2960.0 1235.2941176470588
      vertex 1000.0 2960.0 0.0
      vertex 1000.0 2960.0 1235.2941176470588
    endloop
  endfacet
  facet normal 0.0 0.0 -336000.0
    outer loop
      vertex 1000.0 2960.0 0.0
      vertex 2200.0 2960.0 0.0
      vertex 1000.0 2680.0 0.0
    endloop
  endfacet
  facet normal 0.0 0.0 -336000.0
    outer loop
      vertex 1000.0 2680.0 0.0
      vertex 2200.0 2960.0 0.0
      vertex 2200.0 2680.0 0.0
    endloop
  endfacet
  facet normal 0.0 0.0 336000.0
    outer loop
      vertex 2200.0 2960.0 1235.2941176470588
      vertex 1000.0 2960.0 1235.2941176470588
      vertex 1000.0 2680.0 1235.2941176470588
    endloop
  endfacet
  facet normal 0.0 0.0 336000.0
    outer loop
      vertex 2200.0 2960.0 1235.2941176470588
      vertex 1000.0 2680.0 1235.2941176470588
      vertex 2200.0 2680.0 1235.2941176470588
    endloop
  endfacet
  facet normal -395294.1176470588 0.0 0.0
    outer loop
      vertex 1000.0 2960.0 0.0
      vertex 1000.0 3240.0 1411.764705882353
      vertex 1000.0 3240.0 0.0
    endloop
  endfacet
  facet normal -395294.1176470588 0.0 0.0
    outer loop
      vertex 1000.0 2960.0 0.0
      vertex 1000.0 2960.0 1411.764705882353
      vertex 1000.0 3240.0 1411.764705882353
    endloop
  endfacet
  facet normal 395294.1176470588 0.0 0.0
    outer loop
      vertex 2200.0 3240.0 1411.764705882353
      vertex 2200.0 2960.0 0.0
      vertex 2200.0 3240.0 0.0
    endloop
  endfacet
  facet normal 395294.1176470588 -0.0 0.0
    outer loop
      vertex 2200.0 2960.0 1411.764705882353
      vertex 2200.0 2960.0 0.0
      vertex 2200.0 3240.0 1411.764705882353
    endloop
  endfacet
  facet normal 0.0 -1694117.6470588236 0.0
    outer loop
      vertex 2200.0 2960.0 0.0
      vertex 2200.0 2960.0 1411.764705882353
      vertex 1000.0 2960.0 0.0
    endloop
  endfacet
  facet normal 0.0 -1694117.6470588236 0.0
    outer loop
      vertex 1000.0 2960.0 0.0
      vertex 2200.0 2960.0 1411.764705882353
      vertex 1000.0 2960.0 1411.764705882353
    endloop
  endfacet
  facet normal 0.0 1694117.6470588236 0.0
    outer loop
      vertex 2200.0 3240.0 1411.764705882353
      vertex 2200.0 3240.0 0.0
      vertex 1000.0 3240.0 0.0
    endloop
  endfacet
  facet normal 0.0 1694117.6470588236 0.0
    outer loop
      vertex 2200.0 3240.0 1411.764705882353
      vertex 1000.0 3240.0 0.0
      vertex 1000.0 3240.0 1411.764705882353
    endloop
  endfacet
  facet normal 0.0 0.0 -336000.0
    outer loop
      vertex 1000.0 3240.0 0.0
      vertex 2200.0 3240.0 0.0
      vertex 1000.0 2960.0 0.0
    endloop
  endfacet
  facet normal 0.0 0.0 -336000.0
    outer loop
      vertex 1000.0 2960.0 0.0
      vertex 2200.0 3240.0 0.0
      vertex 2200.0 2960.0 0.0
    endloop
  endfacet
  facet normal 0.0 0.0 336000.0
    outer loop
      vertex 2200.0 3240.0 1411.764705882353
      vertex 1000.0 3240.0 1411.764705882353
      vertex 1000.0 2960.0 1411.764705882353
    endloop
  endfacet
  facet normal 0.0 0.0 336000.0
    outer loop
      vertex 2200.0 3240.0 1411.764705882353
      vertex 1000.0 2960.0 1411.764705882353
      vertex 2200.0 2960.0 1411.764705882353
    endloop
  endfacet
  facet normal -444705.8823529412 0.0 0.0
    outer loop
      vertex 1000.0 3240.0 0.0
      vertex 1000.0 3240.0 1588.235294117647
      vertex 1000.0 3520.0 0.0
    endloop
  endfacet
  facet normal -444705.8823529412 0.0 0.0
    outer loop
      vertex 1000.0 3520.0 0.0
      vertex 1000.0 3240.0 1588.235294117647
      vertex 1000.0 3520.0 1588.235294117647
    endloop
  endfacet
  facet normal 444705.8823529412 0.0 0.0
    outer loop
      vertex 2200.0 3240.0 1588.235294117647
      vertex 2200.0 3240.0 0.0
      vertex 2200.0 3520.0 0.0
    endloop
  endfacet
  facet normal 444705.8823529412 -0.0 0.0
    outer loop
      vertex 2200.0 3240.0 1588.235294117647
      vertex 2200.0 3520.0 0.0
      vertex 2200.0 3520.0 1588.235294117647
    endloop
  endfacet
  facet normal 0.0 -1905882.3529411764 0.0
    outer loop
      vertex 2200.0 3240.0 0.0
      vertex 2200.0 3240.0 1588.235294117647
      vertex 1000.0 3240.0 0.0
    endloop
  endfacet
  facet normal 0.0 -1905882.3529411764 0.0
    outer loop
      vertex 1000.0 3240.0 0.0
      vertex 2200.0 3240.0 1588.235294117647
      vertex 1000.0 3240.0 1588.235294117647
    endloop
  endfacet
  facet normal 0.0 1905882.3529411764 0.0
    outer loop
      vertex 2200.0 3520.0 1588.235294117647
      vertex 2200.0 3520.0 0.0
      vertex 1000.0 3520.0 0.0
    endloop
  endfacet
  facet normal 0.0 1905882.3529411764 0.0
    outer loop
      vertex 2200.0 3520.0 1588.235294117647
      vertex 1000.0 3520.0 0.0
      vertex 1000.0 3520.0 1588.235294117647
    endloop
  endfacet
  facet normal 0.0 0.0 -336000.0
    outer loop
      vertex 1000.0 3520.0 0.0
      vertex 2200.0 3520.0 0.0
      vertex 1000.0 3240.0 0.0
    endloop
  endfacet
  facet normal 0.0 0.0 -336000.0
    outer loop
      vertex 1000.0 3240.0 0.0
      vertex 2200.0 3520.0 0.0
      vertex 2200.0 3240.0 0.0
    endloop
  endfacet
  facet normal 0.0 0.0 336000.0
    outer loop
      vertex 2200.0 3520.0 1588.235294117647
      vertex 1000.0 3520.0 1588.235294117647
      vertex 1000.0 3240.0 1588.235294117647
    endloop
  endfacet
  facet normal 0.0 0.0 336000.0
    outer loop
      vertex 2200.0 3520.0 1588.235294117647
      vertex 1000.0 3240.0 1588.235294117647
      vertex 2200.0 3240.0 1588.235294117647
    endloop
  endfacet
  facet normal -494117.64705882355 0.0 0.0
    outer loop
      vertex 1000.0 3520.0 0.0
      vertex 1000.0 3800.0 1764.7058823529412
      vertex 1000.0 3800.0 0.0
    endloop
  endfacet
  facet normal -494117.64705882355 0.0 0.0
    outer loop
      vertex 1000.0 3520.0 0.0
      vertex 1000.0 3520.0 1764.7058823529412
      vertex 1000.0 3800.0 1764.7058823529412
    endloop
  endfacet
  facet normal 494117.64705882355 0.0 0.0
    outer loop
      vertex 2200.0 3800.0 1764.7058823529412
      vertex 2200.0 3520.0 0.0
      vertex 2200.0 3800.0 0.0
    endloop
  endfacet
  facet normal 494117.64705882355 -0.0 0.0
    outer loop
      vertex 2200.0 3520.0 1764.7058823529412
      vertex 2200.0 3520.0 0.0
      vertex 2200.0 3800.0 1764.7058823529412
    endloop
  endfacet
  facet normal 0.0 -2117647.0588235296 0.0
    outer loop
      vertex 2200.0 3520.0 0.0
      vertex 2200.0 3520.0 1764.7058823529412
      vertex 1000.0 3520.0 0.0
    endloop
  endfacet
  facet normal 0.0 -2117647.0588235296 0.0
    outer loop
      vertex 1000.0 3520.0 0.0
      vertex 2200.0 3520.0 1764.7058823529412
      vertex 1000.0 3520.0 1764.7058823529412
    endloop
  endfacet
  facet normal 0.0 2117647.0588235296 0.0
    outer loop
      vertex 2200.0 3800.0 1764.7058823529412
      vertex 2200.0 3800.0 0.0
      vertex 1000.0 3800.0 0.0
    endloop
  endfacet
  facet normal 0.0 2117647.0588235296 0.0
    outer loop
      vertex 2200.0 3800.0 1764.7058823529412
      vertex 1000.0 3800.0 0.0
      vertex 1000.0 3800.0 1764.7058823529412
    endloop
  endfacet
  facet normal 0.0 0.0 -336000.0
    outer loop
      vertex 1000.0 3800.0 0.0
      vertex 2200.0 3800.0 0.0
      vertex 1000.0 3520.0 0.0
    endloop
  endfacet
  facet normal 0.0 0.0 -336000.0
    outer loop
      vertex 1000.0 3520.0 0.0
      vertex 2200.0 3800.0 0.0
      vertex 2200.0 3520.0 0.0
    endloop
  endfacet
  facet normal 0.0 0.0 336000.0
    outer loop
      vertex 2200.0 3800.0 1764.7058823529412
      vertex 1000.0 3800.0 1764.7058823529412
      vertex 1000.0 3520.0 1764.7058823529412
    endloop
  endfacet
  facet normal 0.0 0.0 336000.0
    outer loop
      vertex 2200.0 3800.0 1764.7058823529412
      vertex 1000.0 3520.0 1764.7058823529412
      vertex 2200.0 3520.0 1764.7058823529412
    endloop
  endfacet
  facet normal -543529.4117647059 0.0 0.0
    outer loop
      vertex 1000.0 3800.0 0.0
      vertex 1000.0 3800.0 1941.1764705882354
      vertex 1000.0 4080.0 0.0
    endloop
  endfacet
  facet normal -543529.4117647059 0.0 0.0
    outer loop
      vertex 1000.0 4080.0 0.0
      vertex 1000.0 3800.0 1941.1764705882354
      vertex 1000.0 4080.0 1941.1764705882354
    endloop
  endfacet
  facet normal 543529.4117647059 0.0 0.0
    outer loop
      vertex 2200.0 3800.0 1941.1764705882354
      vertex 2200.0 3800.0 0.0
      vertex 2200.0 4080.0 0.0
    endloop
  endfacet
  facet normal 543529.4117647059 -0.0 0.0
    outer loop
      vertex 2200.0 3800.0 1941.1764705882354
      vertex 2200.0 4080.0 0.0
      vertex 2200.0 4080.0 1941.1764705882354
    endloop
  endfacet
  facet normal 0.0 -2329411.7647058824 0.0
    outer loop
      vertex 2200.0 3800.0 0.0
      vertex 2200.0 3800.0 1941.1764705882354
      vertex 1000.0 3800.0 0.0
    endloop
  endfacet
  facet normal 0.0 -2329411.7647058824 0.0
    outer loop
      vertex 1000.0 3800.0 0.0
      vertex 2200.0 3800.0 1941.1764705882354
      vertex 1000.0 3800.0 1941.1764705882354
    endloop
  endfacet
  facet normal 0.0 2329411.7647058824 0.0
    outer loop
      vertex 2200.0 4080.0 1941.1764705882354
      vertex 2200.0 4080.0 0.0
      vertex 1000.0 4080.0 0.0
    endloop
  endfacet
  facet normal 0.0 2329411.7647058824 0.0
    outer loop
      vertex 2200.0 4080.0 1941.1764705882354
      vertex 1000.0 4080.0 0.0
      vertex 1000.0 4080.0 1941.1764705882354
    endloop
  endfacet
  facet normal 0.0 0.0 -336000.0
    outer loop
      vertex 1000.0 4080.0 0.0
      vertex 2200.0 4080.0 0.0
      vertex 1000.0 3800.0 0.0
    endloop
  endfacet
  facet normal 0.0 0.0 -336000.0
    outer loop
      vertex 1000.0 3800.0 0.0
      vertex 2200.0 4080.0 0.0
      vertex 2200.0 3800.0 0.0
    endloop
  endfacet
  facet normal 0.0 0.0 336000.0
    outer loop
      vertex 2200.0 4080.0 1941.1764705882354
      vertex 1000.0 4080.0 1941.1764705882354
      vertex 1000.0 3800.0 1941.1764705882354
    endloop
  endfacet
  facet normal 0.0 0.0 336000.0
    outer loop
      vertex 2200.0 4080.0 1941.1764705882354
      vertex 1000.0 3800.0 1941.1764705882354
      vertex 2200.0 3800.0 1941.1764705882354
    endloop
  endfacet
  facet normal -592941.1764705882 0.0 0.0
    outer loop
      vertex 1000.0 4080.0 0.0
      vertex 1000.0 4080.0 2117.6470588235293
      vertex 1000.0 4360.0 0.0
    endloop
  endfacet
  facet normal -592941.1764705882 0.0 0.0
    outer loop
      vertex 1000.0 4360.0 0.0
      vertex 1000.0 4080.0 2117.6470588235293
      vertex 1000.0 4360.0 2117.6470588235293
    endloop
  endfacet
  facet normal 592941.1764705882 0.0 0.0
    outer loop
      vertex 2200.0 4080.0 2117.6470588235293
      vertex 2200.0 4080.0 0.0
      vertex 2200.0 4360.0 0.0
    endloop
  endfacet
  facet normal 592941.1764705882 -0.0 0.0
    outer loop
      vertex 2200.0 4080.0 2117.6470588235293
      vertex 2200.0 4360.0 0.0
      vertex 2200.0 4360.0 2117.6470588235293
    endloop
  endfacet
  facet normal 0.0 -2541176.470588235 0.0
    outer loop
      vertex 2200.0 4080.0 0.0
      vertex 2200.0 4080.0 2117.6470588235293
      vertex 1000.0 4080.0 0.0
    endloop
  endfacet
  facet normal 0.0 -2541176.470588235 0.0
    outer loop
      vertex 1000.0 4080.0 0.0
      vertex 2200.0 4080.0 2117.6470588235293
      vertex 1000.0 4080.0 2117.6470588235293
    endloop
  endfacet
  facet normal 0.0 2541176.470588235 0.0
    outer loop
      vertex 2200.0 4360.0 2117.6470588235293
      vertex 2200.0 4360.0 0.0
      vertex 1000.0 4360.0 0.0
    endloop
  endfacet
  facet normal 0.0 2541176.470588235 0.0
    outer loop
      vertex 2200.0 4360.0 2117.6470588235293
      vertex 1000.0 4360.0 0.0
      vertex 1000.0 4360.0 2117.6470588235293
    endloop
  endfacet
  facet normal 0.0 0.0 -336000.0
    outer loop
      vertex 1000.0 4360.0 0.0
      vertex 2200.0 4360.0 0.0
      vertex 1000.0 4080.0 0.0
    endloop
  endfacet
  facet normal 0.0 0.0 -336000.0
    outer loop
      vertex 1000.0 4080.0 0.0
      vertex 2200.0 4360.0 0.0
      vertex 2200.0 4080.0 0.0
    endloop
  endfacet
  facet normal 0.0 0.0 336000.0
    outer loop
      vertex 2200.0 4360.0 2117.6470588235293
      vertex 1000.0 4360.0 2117.6470588235293
      vertex 1000.0 4080.0 2117.6470588235293
    endloop
  endfacet
  facet normal 0.0 0.0 336000.0
    outer loop
      vertex 2200.0 4360.0 2117.6470588235293
      vertex 1000.0 4080.0 2117.6470588235293
      vertex 2200.0 4080.0 2117.6470588235293
    endloop
  endfacet
  facet normal -642352.9411764706 0.0 0.0
    outer loop
      vertex 1000.0 4360.0 0.0
      vertex 1000.0 4640.0 2294.1176470588234
      vertex 1000.0 4640.0 0.0
    endloop
  endfacet
  facet normal -642352.9411764706 0.0 0.0
    outer loop
      vertex 1000.0 4360.0 0.0
      vertex 1000.0 4360.0 2294.1176470588234
      vertex 1000.0 4640.0 2294.1176470588234
    endloop
  endfacet
  facet normal 642352.9411764706 0.0 0.0
    outer loop
      vertex 2200.0 4640.0 2294.1176470588234
      vertex 2200.0 4360.0 0.0
      vertex 2200.0 4640.0 0.0
    endloop
  endfacet
  facet normal 642352.9411764706 -0.0 0.0
    outer loop
      vertex 2200.0 4360.0 2294.1176470588234
      vertex 2200.0 4360.0 0.0
      vertex 2200.0 4640.0 2294.1176470588234
    endloop
  endfacet
  facet normal 0.0 -2752941.176470588 0.0
    outer loop
      vertex 2200.0 4360.0 0.0
      vertex 2200.0 4360.0 2294.1176470588234
      vertex 1000.0 4360.0 0.0
    endloop
  endfacet
  facet normal 0.0 -2752941.176470588 0.0
    outer loop
      vertex 1000.0 4360.0 0.0
      vertex 2200.0 4360.0 2294.1176470588234
      vertex 1000.0 4360.0 2294.1176470588234
    endloop
  endfacet
  facet normal 0.0 2752941.176470588 0.0
    outer loop
      vertex 2200.0 4640.0 2294.1176470588234
      vertex 2200.0 4640.0 0.0
      vertex 1000.0 4640.0 0.0
    endloop
  endfacet
  facet normal 0.0 2752941.176470588 0.0
    outer loop
      vertex 2200.0 4640.0 2294.1176470588234
      vertex 1000.0 4640.0 0.0
      vertex 1000.0 4640.0 2294.1176470588234
    endloop
  endfacet
  facet normal 0.0 0.0 -336000.0
    outer loop
      vertex 1000.0 4640.0 0.0
      vertex 2200.0 4640.0 0.0
      vertex 1000.0 4360.0 0.0
    endloop
  endfacet
  facet normal 0.0 0.0 -336000.0
    outer loop
      vertex 1000.0 4360.0 0.0
      vertex 2200.0 4640.0 0.0
      vertex 2200.0 4360.0 0.0
    endloop
  endfacet
  facet normal 0.0 0.0 336000.0
    outer loop
      vertex 2200.0 4640.0 2294.1176470588234
      vertex 1000.0 4640.0 2294.1176470588234
      vertex 1000.0 4360.0 2294.1176470588234
    endloop
  endfacet
  facet normal 0.0 0.0 336000.0
    outer loop
      vertex 2200.0 4640.0 2294.1176470588234
      vertex 1000.0 4360.0 2294.1176470588234
      vertex 2200.0 4360.0 2294.1176470588234
    endloop
  endfacet
  facet normal -691764.7058823529 0.0 0.0
    outer loop
      vertex 1000.0 4640.0 0.0
      vertex 1000.0 4640.0 2470.5882352941176
      vertex 1000.0 4920.0 0.0
    endloop
  endfacet
  facet normal -691764.7058823529 0.0 0.0
    outer loop
      vertex 1000.0 4920.0 0.0
      vertex 1000.0 4640.0 2470.5882352941176
      vertex 1000.0 4920.0 2470.5882352941176
    endloop
  endfacet
  facet normal 691764.7058823529 0.0 0.0
    outer loop
      vertex 2200.0 4640.0 2470.5882352941176
      vertex 2200.0 4640.0 0.0
      vertex 2200.0 4920.0 0.0
    endloop
  endfacet
  facet normal 691764.7058823529 -0.0 0.0
    outer loop
      vertex 2200.0 4640.0 2470.5882352941176
      vertex 2200.0 4920.0 0.0
      vertex 2200.0 4920.0 2470.5882352941176
    endloop
  endfacet
  facet normal 0.0 -2964705.882352941 0.0
    outer loop
      vertex 2200.0 4640.0 0.0
      vertex 2200.0 4640.0 2470.5882352941176
      vertex 1000.0 4640.0 0.0
    endloop
  endfacet
  facet normal 0.0 -2964705.882352941 0.0
    outer loop
      vertex 1000.0 4640.0 0.0
      vertex 2200.0 4640.0 2470.5882352941176
      vertex 1000.0 4640.0 2470.5882352941176
    endloop
  endfacet
  facet normal 0.0 2964705.882352941 0.0
    outer loop
      vertex 2200.0 4920.0 2470.5882352941176
      vertex 2200.0 4920.0 0.0
      vertex 1000.0 4920.0 0.0
    endloop
  endfacet
  facet normal 0.0 2964705.882352941 0.0
    outer loop
      vertex 2200.0 4920.0 2470.5882352941176
      vertex 1000.0 4920.0 0.0
      vertex 1000.0 4920.0 2470.5882352941176
    endloop
  endfacet
  facet normal 0.0 0.0 -336000.0
    outer loop
      vertex 1000.0 4920.0 0.0
      vertex 2200.0 4920.0 0.0
      vertex 1000.0 4640.0 0.0
    endloop
  endfacet
  facet normal 0.0 0.0 -336000.0
    outer loop
      vertex 1000.0 4640.0 0.0
      vertex 2200.0 4920.0 0.0
      vertex 2200.0 4640.0 0.0
    endloop
  endfacet
  facet normal 0.0 0.0 336000.0
    outer loop
      vertex 2200.0 4920.0 2470.5882352941176
      vertex 1000.0 4920.0 2470.5882352941176
      vertex 1000.0 4640.0 2470.5882352941176
    endloop
  endfacet
  facet normal 0.0 0.0 336000.0
    outer loop
      vertex 2200.0 4920.0 2470.5882352941176
      vertex 1000.0 4640.0 2470.5882352941176
      vertex 2200.0 4640.0 2470.5882352941176
    endloop
  endfacet
  facet normal -741176.4705882353 0.0 0.0
    outer loop
      vertex 1000.0 4920.0 0.0
      vertex 1000.0 4920.0 2647.0588235294117
      vertex 1000.0 5200.0 0.0
    endloop
  endfacet
  facet normal -741176.4705882353 0.0 0.0
    outer loop
      vertex 1000.0 5200.0 0.0
      vertex 1000.0 4920.0 2647.0588235294117
      vertex 1000.0 5200.0 2647.0588235294117
    endloop
  endfacet
  facet normal 741176.4705882353 0.0 0.0
    outer loop
      vertex 2200.0 4920.0 2647.0588235294117
      vertex 2200.0 4920.0 0.0
      vertex 2200.0 5200.0 0.0
    endloop
  endfacet
  facet normal 741176.4705882353 -0.0 0.0
    outer loop
      vertex 2200.0 4920.0 2647.0588235294117
      vertex 2200.0 5200.0 0.0
      vertex 2200.0 5200.0 2647.0588235294117
    endloop
  endfacet
  facet normal 0.0 -3176470.588235294 0.0
    outer loop
      vertex 2200.0 4920.0 0.0
      vertex 2200.0 4920.0 2647.0588235294117
      vertex 1000.0 4920.0 0.0
    endloop
  endfacet
  facet normal 0.0 -3176470.588235294 0.0
    outer loop
      vertex 1000.0 4920.0 0.0
      vertex 2200.0 4920.0 2647.0588235294117
      vertex 1000.0 4920.0 2647.0588235294117
    endloop
  endfacet
  facet normal 0.0 3176470.588235294 0.0
    outer loop
      vertex 2200.0 5200.0 2647.0588235294117
      vertex 2200.0 5200.0 0.0
      vertex 1000.0 5200.0 0.0
    endloop
  endfacet
  facet normal 0.0 3176470.588235294 0.0
    outer loop
      vertex 2200.0 5200.0 2647.0588235294117
      vertex 1000.0 5200.0 0.0
      vertex 1000.0 5200.0 2647.0588235294117
    endloop
  endfacet
  facet normal 0.0 0.0 -336000.0
    outer loop
      vertex 1000.0 5200.0 0.0
      vertex 2200.0 5200.0 0.0
      vertex 1000.0 4920.0 0.0
    endloop
  endfacet
  facet normal 0.0 0.0 -336000.0
    outer loop
      vertex 1000.0 4920.0 0.0
      vertex 2200.0 5200.0 0.0
      vertex 2200.0 4920.0 0.0
    endloop
  endfacet
  facet normal 0.0 0.0 336000.0
    outer loop
      vertex 2200.0 5200.0 2647.0588235294117
      vertex 1000.0 5200.0 2647.0588235294117
      vertex 1000.0 4920.0 2647.0588235294117
    endloop
  endfacet
  facet normal 0.0 0.0 336000.0
    outer loop
      vertex 2200.0 5200.0 2647.0588235294117
      vertex 1000.0 4920.0 2647.0588235294117
      vertex 2200.0 4920.0 2647.0588235294117
    endloop
  endfacet
  facet normal -790588.2352941176 0.0 0.0
    outer loop
      vertex 1000.0 5200.0 0.0
      vertex 1000.0 5480.0 2823.529411764706
      vertex 1000.0 5480.0 0.0
    endloop
  endfacet
  facet normal -790588.2352941176 0.0 0.0
    outer loop
      vertex 1000.0 5200.0 0.0
      vertex 1000.0 5200.0 2823.529411764706
      vertex 1000.0 5480.0 2823.529411764706
    endloop
  endfacet
  facet normal 790588.2352941176 0.0 0.0
    outer loop
      vertex 2200.0 5480.0 2823.529411764706
      vertex 2200.0 5200.0 0.0
      vertex 2200.0 5480.0 0.0
    endloop
  endfacet
  facet normal 790588.2352941176 -0.0 0.0
    outer loop
      vertex 2200.0 5200.0 2823.529411764706
      vertex 2200.0 5200.0 0.0
      vertex 2200.0 5480.0 2823.529411764706
    endloop
  endfacet
  facet normal 0.0 -3388235.294117647 0.0
    outer loop
      vertex 2200.0 5200.0 0.0
      vertex 2200.0 5200.0 2823.529411764706
      vertex 1000.0 5200.0 0.0
    endloop
  endfacet
  facet normal 0.0 -3388235.294117647 0.0
    outer loop
      vertex 1000.0 5200.0 0.0
      vertex 2200.0 5200.0 2823.529411764706
      vertex 1000.0 5200.0 2823.529411764706
    endloop
  endfacet
  facet normal 0.0 3388235.294117647 0.0
    outer loop
      vertex 2200.0 5480.0 2823.529411764706
      vertex 2200.0 5480.0 0.0
      vertex 1000.0 5480.0 0.0
    endloop
  endfacet
  facet normal 0.0 3388235.294117647 0.0
    outer loop
      vertex 2200.0 5480.0 2823.529411764706
      vertex 1000.0 5480.0 0.0
      vertex 1000.0 5480.0 2823.529411764706
    endloop
  endfacet
  facet normal 0.0 0.0 -336000.0
    outer loop
      vertex 1000.0 5480.0 0.0
      vertex 2200.0 5480.0 0.0
      vertex 1000.0 5200.0 0.0
    endloop
  endfacet
  facet normal 0.0 0.0 -336000.0
    outer loop
      vertex 1000.0 5200.0 0.0
      vertex 2200.0 5480.0 0.0
      vertex 2200.0 5200.0 0.0
    endloop
  endfacet
  facet normal 0.0 0.0 336000.0
    outer loop
      vertex 2200.0 5480.0 2823.529411764706
      vertex 1000.0 5480.0 2823.529411764706
      vertex 1000.0 5200.0 2823.529411764706
    endloop
  endfacet
  facet normal 0.0 0.0 336000.0
    outer loop
      vertex 2200.0 5480.0 2823.529411764706
      vertex 1000.0 5200.0 2823.529411764706
      vertex 2200.0 5200.0 2823.529411764706
    endloop
  endfacet
  facet normal -840000.0 0.0 0.0
    outer loop
      vertex 1000.0 5480.0 0.0
      vertex 1000.0 5480.0 3000.0
      vertex 1000.0 5760.0 0.0
    endloop
  endfacet
  facet normal -840000.0 0.0 0.0
    outer loop
      vertex 1000.0 5760.0 0.0
      vertex 1000.0 5480.0 3000.0
      vertex 1000.0 5760.0 3000.0
    endloop
  endfacet
  facet normal 840000.0 0.0 0.0
    outer loop
      vertex 2200.0 5480.0 3000.0
      vertex 2200.0 5480.0 0.0
      vertex 2200.0 5760.0 0.0
    endloop
  endfacet
  facet normal 840000.0 -0.0 0.0
    outer loop
      vertex 2200.0 5480.0 3000.0
      vertex 2200.0 5760.0 0.0
      vertex 2200.0 5760.0 3000.0
    endloop
  endfacet
  facet normal 0.0 -3600000.0 0.0
    outer loop
      vertex 2200.0 5480.0 0.0
      vertex 2200.0 5480.0 3000.0
      vertex 1000.0 5480.0 0.0
    endloop
  endfacet
  facet normal 0.0 -3600000.0 0.0
    outer loop
      vertex 1000.0 5480.0 0.0
      vertex 2200.0 5480.0 3000.0
      vertex 1000.0 5480.0 3000.0
    endloop
  endfacet
  facet normal 0.0 3600000.0 0.0
    outer loop
      vertex 2200.0 5760.0 3000.0
      vertex 2200.0 5760.0 0.0
      vertex 1000.0 5760.0 0.0
    endloop
  endfacet
  facet normal 0.0 3600000.0 0.0
    outer loop
      vertex 2200.0 5760.0 3000.0
      vertex 1000.0 5760.0 0.0
      vertex 1000.0 5760.0 3000.0
    endloop
  endfacet
  facet normal 0.0 0.0 -336000.0
    outer loop
      vertex 1000.0 5760.0 0.0
      vertex 2200.0 5760.0 0.0
      vertex 1000.0 5480.0 0.0
    endloop
  endfacet
  facet normal 0.0 0.0 -336000.0
    outer loop
      vertex 1000.0 5480.0 0.0
      vertex 2200.0 5760.0 0.0
      vertex 2200.0 5480.0 0.0
    endloop
  endfacet
  facet normal 0.0 0.0 336000.0
    outer loop
      vertex 2200.0 5760.0 3000.0
      vertex 1000.0 5760.0 3000.0
      vertex 1000.0 5480.0 3000.0
    endloop
  endfacet
  facet normal 0.0 0.0 336000.0
    outer loop
      vertex 2200.0 5760.0 3000.0
      vertex 1000.0 5480.0 3000.0
      vertex 2200.0 5480.0 3000.0
    endloop
  endfacet
endsolid Scala001
solid Solaio001
  facet normal -2075000.0 0.0 0.0
    outer loop
      vertex -300.0 0.0 3000.0
      vertex -300.0 0.0 3250.0
      vertex -300.0 8300.0 3000.0
    endloop
  endfacet
  facet normal -2075000.0 0.0 0.0
    outer loop
      vertex -300.0 8300.0 3000.0
      vertex -300.0 0.0 3250.0
      vertex -300.0 8300.0 3250.0
    endloop
  endfacet
  facet normal 2075000.0 0.0 0.0
    outer loop
      vertex 10000.000000000002 0.0 3250.0
      vertex 10000.000000000002 0.0 3000.0
      vertex 10000.000000000002 8300.0 3000.0
    endloop
  endfacet
  facet normal 2075000.0 -0.0 0.0
    outer loop
      vertex 10000.000000000002 0.0 3250.0
      vertex 10000.000000000002 8300.0 3000.0
      vertex 10000.000000000002 8300.0 3250.0
    endloop
  endfacet
  facet normal 0.0 -2575000.0000000005 0.0
    outer loop
      vertex 10000.000000000002 0.0 3000.0
      vertex 10000.000000000002 0.0 3250.0
      vertex -300.0 0.0 3000.0
    endloop
  endfacet
  facet normal 0.0 -2575000.0000000005 0.0
    outer loop
      vertex -300.0 0.0 3000.0
      vertex 10000.000000000002 0.0 3250.0
      vertex -300.0 0.0 3250.0
    endloop
  endfacet
  facet normal 0.0 2575000.0000000005 0.0
    outer loop
      vertex 10000.000000000002 8300.0 3250.0
      vertex 10000.000000000002 8300.0 3000.0
      vertex -300.0 8300.0 3000.0
    endloop
  endfacet
  facet normal 0.0 2575000.0000000005 0.0
    outer loop
      vertex 10000.000000000002 8300.0 3250.0
      vertex -300.0 8300.0 3000.0
      vertex -300.0 8300.0 3250.0
    endloop
  endfacet
  facet normal 0.0 0.0 -85490000.00000001
    outer loop
      vertex -300.0 8300.0 3000.0
      vertex 10000.000000000002 8300.0 3000.0
      vertex -300.0 0.0 3000.0
    endloop
  endfacet
  facet normal 0.0 0.0 -85490000.00000001
    outer loop
      vertex -300.0 0.0 3000.0
      vertex 10000.000000000002 8300.0 3000.0
      vertex 10000.000000000002 0.0 3000.0
    endloop
  endfacet
  facet normal 0.0 0.0 85490000.00000001
    outer loop
      vertex 10000.000000000002 8300.0 3250.0
      vertex -300.0 8300.0 3250.0
      vertex -300.0 0.0 3250.0
    endloop
  endfacet
  facet normal 0.0 0.0 85490000.00000001
    outer loop
      vertex 10000.000000000002 8300.0 3250.0
      vertex -300.0 0.0 3250.0
      vertex 10000.000000000002 0.0 3250.0
    endloop
  endfacet
endsolid Solaio001
solid Fondazione001
  facet normal -320000.0 0.0 0.0
    outer loop
      vertex -250.0 -250.0 -400.0
      vertex -250.0 -250.0 0.0
      vertex -250.0 550.0 -400.0
    endloop
  endfacet
  facet normal -320000.0 0.0 0.0
    outer loop
      vertex -250.0 550.0 -400.0
      vertex -250.0 -250.0 0.0
      vertex -250.0 550.0 0.0
    endloop
  endfacet
  facet normal 320000.0 0.0 0.0
    outer loop
      vertex 10250.0 -250.0 0.0
      vertex 10250.0 -250.0 -400.0
      vertex 10250.0 550.0 -400.0
    endloop
  endfacet
  facet normal 320000.0 -0.0 0.0
    outer loop
      vertex 10250.0 -250.0 0.0
      vertex 10250.0 550.0 -400.0
      vertex 10250.0 550.0 0.0
    endloop
  endfacet
  facet normal 0.0 -4200000.0 0.0
    outer loop
      vertex -250.0 -250.0 -400.0
      vertex 10250.0 -250.0 -400.0
      vertex -250.0 -250.0 0.0
    endloop
  endfacet
  facet normal 0.0 -4200000.0 0.0
    outer loop
      vertex 10250.0 -250.0 -400.0
      vertex 10250.0 -250.0 0.0
      vertex -250.0 -250.0 0.0
    endloop
  endfacet
  facet normal 0.0 4200000.0 0.0
    outer loop
      vertex 10250.0 550.0 -400.0
      vertex -250.0 550.0 -400.0
      vertex -250.0 550.0 0.0
    endloop
  endfacet
  facet normal 0.0 4200000.0 0.0
    outer loop
      vertex 10250.0 550.0 0.0
      vertex 10250.0 550.0 -400.0
      vertex -250.0 550.0 0.0
    endloop
  endfacet
  facet normal 0.0 0.0 -8400000.0
    outer loop
      vertex -250.0 550.0 -400.0
      vertex 10250.0 550.0 -400.0
      vertex -250.0 -250.0 -400.0
    endloop
  endfacet
  facet normal 0.0 0.0 -8400000.0
    outer loop
      vertex -250.0 -250.0 -400.0
      vertex 10250.0 550.0 -400.0
      vertex 10250.0 -250.0 -400.0
    endloop
  endfacet
  facet normal 0.0 0.0 8400000.0
    outer loop
      vertex 10250.0 550.0 0.0
      vertex -250.0 550.0 0.0
      vertex -250.0 -250.0 0.0
    endloop
  endfacet
  facet normal 0.0 0.0 8400000.0
    outer loop
      vertex 10250.0 550.0 0.0
      vertex -250.0 -250.0 0.0
      vertex 10250.0 -250.0 0.0
    endloop
  endfacet
endsolid Fondazione001
solid Fondazione002
  facet normal -320000.0 0.0 0.0
    outer loop
      vertex -250.0 7750.0 -400.0
      vertex -250.0 7750.0 0.0
      vertex -250.0 8550.0 -400.0
    endloop
  endfacet
  facet normal -320000.0 0.0 0.0
    outer loop
      vertex -250.0 8550.0 -400.0
      vertex -250.0 7750.0 0.0
      vertex -250.0 8550.0 0.0
    endloop
  endfacet
  facet normal 320000.0 0.0 0.0
    outer loop
      vertex 10250.0 7750.0 0.0
      vertex 10250.0 7750.0 -400.0
      vertex 10250.0 8550.0 -400.0
    endloop
  endfacet
  facet normal 320000.0 -0.0 0.0
    outer loop
      vertex 10250.0 7750.0 0.0
      vertex 10250.0 8550.0 -400.0
      vertex 10250.0 8550.0 0.0
    endloop
  endfacet
  facet normal 0.0 -4200000.0 0.0
    outer loop
      vertex -250.0 7750.0 -400.0
      vertex 10250.0 7750.0 -400.0
      vertex -250.0 7750.0 0.0
    endloop
  endfacet
  facet normal 0.0 -4200000.0 0.0
    outer loop
      vertex 10250.0 7750.0 -400.0
      vertex 10250.0 7750.0 0.0
      vertex -250.0 7750.0 0.0
    endloop
  endfacet
  facet normal 0.0 4200000.0 0.0
    outer loop
      vertex 10250.0 8550.0 -400.0
      vertex -250.0 8550.0 -400.0
      vertex -250.0 8550.0 0.0
    endloop
  endfacet
  facet normal 0.0 4200000.0 0.0
    outer loop
      vertex 10250.0 8550.0 0.0
      vertex 10250.0 8550.0 -400.0
      vertex -250.0 8550.0 0.0
    endloop
  endfacet
  facet normal 0.0 0.0 -8400000.0
    outer loop
      vertex -250.0 8550.0 -400.0
      vertex 10250.0 8550.0 -400.0
      vertex -250.0 7750.0 -400.0
    endloop
  endfacet
  facet normal 0.0 0.0 -8400000.0
    outer loop
      vertex -250.0 7750.0 -400.0
      vertex 10250.0 8550.0 -400.0
      vertex 10250.0 7750.0 -400.0
    endloop
  endfacet
  facet normal 0.0 0.0 8400000.0
    outer loop
      vertex 10250.0 8550.0 0.0
      vertex -250.0 8550.0 0.0
      vertex -250.0 7750.0 0.0
    endloop
  endfacet
  facet normal 0.0 0.0 8400000.0
    outer loop
      vertex 10250.0 8550.0 0.0
      vertex -250.0 7750.0 0.0
      vertex 10250.0 7750.0 0.0
    endloop
  endfacet
endsolid Fondazione002
solid Fondazione003
  facet normal -3400000.0 0.0 0.0
    outer loop
      vertex -550.0 8250.0 -400.0
      vertex -550.0 -250.0 -400.0
      vertex -550.0 8250.0 0.0
    endloop
  endfacet
  facet normal -3400000.0 0.0 0.0
    outer loop
      vertex -550.0 -250.0 -400.0
      vertex -550.0 -250.0 0.0
      vertex -550.0 8250.0 0.0
    endloop
  endfacet
  facet normal 3400000.0 0.0 0.0
    outer loop
      vertex 250.00000000000182 -250.0 -400.0
      vertex 250.00000000000182 8250.0 -400.0
      vertex 250.00000000000182 8250.0 0.0
    endloop
  endfacet
  facet normal 3400000.0 -0.0 0.0
    outer loop
      vertex 250.00000000000182 -250.0 0.0
      vertex 250.00000000000182 -250.0 -400.0
      vertex 250.00000000000182 8250.0 0.0
    endloop
  endfacet
  facet normal 0.0 -320000.0000000007 0.0
    outer loop
      vertex -550.0 -250.0 -400.0
      vertex 250.00000000000182 -250.0 -400.0
      vertex -550.0 -250.0 0.0
    endloop
  endfacet
  facet normal 0.0 -320000.0000000007 0.0
    outer loop
      vertex 250.00000000000182 -250.0 -400.0
      vertex 250.00000000000182 -250.0 0.0
      vertex -550.0 -250.0 0.0
    endloop
  endfacet
  facet normal 0.0 320000.0000000007 0.0
    outer loop
      vertex 250.00000000000182 8250.0 -400.0
      vertex -550.0 8250.0 -400.0
      vertex -550.0 8250.0 0.0
    endloop
  endfacet
  facet normal 0.0 320000.0000000007 0.0
    outer loop
      vertex 250.00000000000182 8250.0 0.0
      vertex 250.00000000000182 8250.0 -400.0
      vertex -550.0 8250.0 0.0
    endloop
  endfacet
  facet normal 0.0 0.0 -6800000.000000016
    outer loop
      vertex -550.0 8250.0 -400.0
      vertex 250.00000000000182 8250.0 -400.0
      vertex -550.0 -250.0 -400.0
    endloop
  endfacet
  facet normal 0.0 0.0 -6800000.000000016
    outer loop
      vertex -550.0 -250.0 -400.0
      vertex 250.00000000000182 8250.0 -400.0
      vertex 250.00000000000182 -250.0 -400.0
    endloop
  endfacet
  facet normal 0.0 0.0 6800000.000000016
    outer loop
      vertex 250.00000000000182 8250.0 0.0
      vertex -550.0 8250.0 0.0
      vertex -550.0 -250.0 0.0
    endloop
  endfacet
  facet normal 0.0 0.0 6800000.000000016
    outer loop
      vertex 250.00000000000182 8250.0 0.0
      vertex -550.0 -250.0 0.0
      vertex 250.00000000000182 -250.0 0.0
    endloop
  endfacet
endsolid Fondazione003
solid Fondazione004
  facet normal -3400000.0 0.0 0.0
    outer loop
      vertex 9450.0 8250.0 -400.0
      vertex 9450.0 -250.0 -400.0
      vertex 9450.0 8250.0 0.0
    endloop
  endfacet
  facet normal -3400000.0 0.0 0.0
    outer loop
      vertex 9450.0 -250.0 -400.0
      vertex 9450.0 -250.0 0.0
      vertex 9450.0 8250.0 0.0
    endloop
  endfacet
  facet normal 3400000.0 0.0 0.0
    outer loop
      vertex 10250.000000000002 -250.0 -400.0
      vertex 10250.000000000002 8250.0 -400.0
      vertex 10250.000000000002 8250.0 0.0
    endloop
  endfacet
  facet normal 3400000.0 -0.0 0.0
    outer loop
      vertex 10250.000000000002 -250.0 0.0
      vertex 10250.000000000002 -250.0 -400.0
      vertex 10250.000000000002 8250.0 0.0
    endloop
  endfacet
  facet normal 0.0 -320000.0000000007 0.0
    outer loop
      vertex 10250.000000000002 -250.0 -400.0
      vertex 10250.000000000002 -250.0 0.0
      vertex 9450.0 -250.0 -400.0
    endloop
  endfacet
  facet normal 0.0 -320000.0000000007 0.0
    outer loop
      vertex 9450.0 -250.0 -400.0
      vertex 10250.000000000002 -250.0 0.0
      vertex 9450.0 -250.0 0.0
    endloop
  endfacet
  facet normal 0.0 320000.0000000007 0.0
    outer loop
      vertex 10250.000000000002 8250.0 0.0
      vertex 10250.000000000002 8250.0 -400.0
      vertex 9450.0 8250.0 -400.0
    endloop
  endfacet
  facet normal 0.0 320000.0000000007 0.0
    outer loop
      vertex 10250.000000000002 8250.0 0.0
      vertex 9450.0 8250.0 -400.0
      vertex 9450.0 8250.0 0.0
    endloop
  endfacet
  facet normal 0.0 0.0 -6800000.000000016
    outer loop
      vertex 9450.0 8250.0 -400.0
      vertex 10250.000000000002 8250.0 -400.0
      vertex 9450.0 -250.0 -400.0
    endloop
  endfacet
  facet normal 0.0 0.0 -6800000.000000016
    outer loop
      vertex 9450.0 -250.0 -400.0
      vertex 10250.000000000002 8250.0 -400.0
      vertex 10250.000000000002 -250.0 -400.0
    endloop
  endfacet
  facet normal 0.0 0.0 6800000.000000016
    outer loop
      vertex 10250.000000000002 8250.0 0.0
      vertex 9450.0 8250.0 0.0
      vertex 9450.0 -250.0 0.0
    endloop
  endfacet
  facet normal 0.0 0.0 6800000.000000016
    outer loop
      vertex 10250.000000000002 8250.0 0.0
      vertex 9450.0 -250.0 0.0
      vertex 10250.000000000002 -250.0 0.0
    endloop
  endfacet
endsolid Fondazione004
solid Fondazione005
  facet normal -3400000.0 0.0 0.0
    outer loop
      vertex 4500.0 8250.0 -400.0
      vertex 4500.0 -250.0 -400.0
      vertex 4500.0 8250.0 0.0
    endloop
  endfacet
  facet normal -3400000.0 0.0 0.0
    outer loop
      vertex 4500.0 -250.0 -400.0
      vertex 4500.0 -250.0 0.0
      vertex 4500.0 8250.0 0.0
    endloop
  endfacet
  facet normal 3400000.0 0.0 0.0
    outer loop
      vertex 5250.000000000002 -250.0 -400.0
      vertex 5250.000000000002 8250.0 -400.0
      vertex 5250.000000000002 8250.0 0.0
    endloop
  endfacet
  facet normal 3400000.0 -0.0 0.0
    outer loop
      vertex 5250.000000000002 -250.0 0.0
      vertex 5250.000000000002 -250.0 -400.0
      vertex 5250.000000000002 8250.0 0.0
    endloop
  endfacet
  facet normal 0.0 -300000.0000000007 0.0
    outer loop
      vertex 5250.000000000002 -250.0 -400.0
      vertex 5250.000000000002 -250.0 0.0
      vertex 4500.0 -250.0 -400.0
    endloop
  endfacet
  facet normal 0.0 -300000.0000000007 0.0
    outer loop
      vertex 4500.0 -250.0 -400.0
      vertex 5250.000000000002 -250.0 0.0
      vertex 4500.0 -250.0 0.0
    endloop
  endfacet
  facet normal 0.0 300000.0000000007 0.0
    outer loop
      vertex 5250.000000000002 8250.0 0.0
      vertex 5250.000000000002 8250.0 -400.0
      vertex 4500.0 8250.0 -400.0
    endloop
  endfacet
  facet normal 0.0 300000.0000000007 0.0
    outer loop
      vertex 5250.000000000002 8250.0 0.0
      vertex 4500.0 8250.0 -400.0
      vertex 4500.0 8250.0 0.0
    endloop
  endfacet
  facet normal 0.0 0.0 -6375000.000000016
    outer loop
      vertex 4500.0 -250.0 -400.0
      vertex 4500.0 8250.0 -400.0
      vertex 5250.000000000002 -250.0 -400.0
    endloop
  endfacet
  facet normal 0.0 0.0 -6375000.000000016
    outer loop
      vertex 4500.0 8250.0 -400.0
      vertex 5250.000000000002 8250.0 -400.0
      vertex 5250.000000000002 -250.0 -400.0
    endloop
  endfacet
  facet normal 0.0 0.0 6375000.000000016
    outer loop
      vertex 4500.0 8250.0 0.0
      vertex 4500.0 -250.0 0.0
      vertex 5250.000000000002 -250.0 0.0
    endloop
  endfacet
  facet normal 0.0 0.0 6375000.000000016
    outer loop
      vertex 5250.000000000002 8250.0 0.0
      vertex 4500.0 8250.0 0.0
      vertex 5250.000000000002 -250.0 0.0
    endloop
  endfacet
endsolid Fondazione005
solid Copertura001
  facet normal 0.0 -2260000.0000000005 0.0
    outer loop
      vertex -800.0 -500.0 3000.0
      vertex 10500.000000000002 -500.0 3000.0
      vertex -800.0 -500.0 3200.0
    endloop
  endfacet
  facet normal 0.0 -2260000.0000000005 0.0
    outer loop
      vertex -800.0 -500.0 3200.0
      vertex 10500.000000000002 -500.0 3000.0
      vertex 10500.000000000002 -500.0 3200.0
    endloop
  endfacet
  facet normal 930000.0 0.0 0.0
    outer loop
      vertex 10500.000000000002 -500.0 3000.0
      vertex 10500.000000000002 4150.0 5000.0
      vertex 10500.000000000002 -500.0 3200.0
    endloop
  endfacet
  facet normal 930000.0 0.0 0.0
    outer loop
      vertex 10500.000000000002 -500.0 3200.0
      vertex 10500.000000000002 4150.0 5000.0
      vertex 10500.000000000002 4150.0 5200.0
    endloop
  endfacet
  facet normal 0.0 2260000.0000000005 -0.0
    outer loop
      vertex 10500.000000000002 4150.0 5000.0
      vertex -800.0 4150.0 5000.0
      vertex 10500.000000000002 4150.0 5200.0
    endloop
  endfacet
  facet normal 0.0 2260000.0000000005 0.0
    outer loop
      vertex 10500.000000000002 4150.0 5200.0
      vertex -800.0 4150.0 5000.0
      vertex -800.0 4150.0 5200.0
    endloop
  endfacet
  facet normal -930000.0 -0.0 0.0
    outer loop
      vertex -800.0 4150.0 5000.0
      vertex -800.0 -500.0 3200.0
      vertex -800.0 4150.0 5200.0
    endloop
  endfacet
  facet normal -930000.0 0.0 0.0
    outer loop
      vertex -800.0 4150.0 5000.0
      vertex -800.0 -500.0 3000.0
      vertex -800.0 -500.0 3200.0
    endloop
  endfacet
  facet normal 0.0 22600000.000000004 -52545000.00000001
    outer loop
      vertex -800.0 -500.0 3000.0
      vertex -800.0 4150.0 5000.0
      vertex 10500.000000000002 -500.0 3000.0
    endloop
  endfacet
  facet normal 0.0 22600000.000000004 -52545000.00000001
    outer loop
      vertex 10500.000000000002 -500.0 3000.0
      vertex -800.0 4150.0 5000.0
      vertex 10500.000000000002 4150.0 5000.0
    endloop
  endfacet
  facet normal 0.0 -22600000.000000004 52545000.00000001
    outer loop
      vertex -800.0 4150.0 5200.0
      vertex -800.0 -500.0 3200.0
      vertex 10500.000000000002 -500.0 3200.0
    endloop
  endfacet
  facet normal 0.0 -22600000.000000004 52545000.00000001
    outer loop
      vertex -800.0 4150.0 5200.0
      vertex 10500.000000000002 -500.0 3200.0
      vertex 10500.000000000002 4150.0 5200.0
    endloop
  endfacet
  facet normal 0.0 -2260000.0000000005 0.0
    outer loop
      vertex -800.0 4150.0 5000.0
      vertex 10500.000000000002 4150.0 5000.0
      vertex -800.0 4150.0 5200.0
    endloop
  endfacet
  facet normal 0.0 -2260000.0000000005 0.0
    outer loop
      vertex -800.0 4150.0 5200.0
      vertex 10500.000000000002 4150.0 5000.0
      vertex 10500.000000000002 4150.0 5200.0
    endloop
  endfacet
  facet normal 930000.0 -0.0 0.0
    outer loop
      vertex 10500.000000000002 4150.0 5000.0
      vertex 10500.000000000002 8800.0 3200.0
      vertex 10500.000000000002 4150.0 5200.0
    endloop
  endfacet
  facet normal 930000.0 0.0 0.0
    outer loop
      vertex 10500.000000000002 4150.0 5000.0
      vertex 10500.000000000002 8800.0 3000.0
      vertex 10500.000000000002 8800.0 3200.0
    endloop
  endfacet
  facet normal 0.0 2260000.0000000005 -0.0
    outer loop
      vertex 10500.000000000002 8800.0 3000.0
      vertex -800.0 8800.0 3000.0
      vertex 10500.000000000002 8800.0 3200.0
    endloop
  endfacet
  facet normal 0.0 2260000.0000000005 0.0
    outer loop
      vertex 10500.000000000002 8800.0 3200.0
      vertex -800.0 8800.0 3000.0
      vertex -800.0 8800.0 3200.0
    endloop
  endfacet
  facet normal -930000.0 0.0 0.0
    outer loop
      vertex -800.0 8800.0 3000.0
      vertex -800.0 4150.0 5000.0
      vertex -800.0 8800.0 3200.0
    endloop
  endfacet
  facet normal -930000.0 0.0 0.0
    outer loop
      vertex -800.0 8800.0 3200.0
      vertex -800.0 4150.0 5000.0
      vertex -800.0 4150.0 5200.0
    endloop
  endfacet
  facet normal 0.0 -22600000.000000004 -52545000.00000001
    outer loop
      vertex -800.0 4150.0 5000.0
      vertex -800.0 8800.0 3000.0
      vertex 10500.000000000002 4150.0 5000.0
    endloop
  endfacet
  facet normal 0.0 -22600000.000000004 -52545000.00000001
    outer loop
      vertex 10500.000000000002 4150.0 5000.0
      vertex -800.0 8800.0 3000.0
      vertex 10500.000000000002 8800.0 3000.0
    endloop
  endfacet
  facet normal 0.0 22600000.000000004 52545000.00000001
    outer loop
      vertex -800.0 8800.0 3200.0
      vertex -800.0 4150.0 5200.0
      vertex 10500.000000000002 4150.0 5200.0
    endloop
  endfacet
  facet normal -0.0 22600000.000000004 52545000.00000001
    outer loop
      vertex -800.0 8800.0 3200.0
      vertex 10500.000000000002 4150.0 5200.0
      vertex 10500.000000000002 8800.0 3200.0
    endloop
  endfacet
endsolid Copertura001
